<svg xmlns="http://www.w3.org/2000/svg" fill-rule="evenodd" stroke-linejoin="round" stroke-miterlimit="2" clip-rule="evenodd" viewBox="0 0 1069 1069" id="computer-fan"><rect width="1066.67" height="1066.67" x="1.411" y=".245" fill="none"></rect><path fill-opacity=".5" d="M582.306,252.328c-10.385,-0 -10.385,-0 0,-0c155.33,-0 281.25,125.92 281.25,281.25l0,-0c0,152.907 -122.022,277.314 -273.991,281.158l-7.259,0.092c-155.33,-0 -281.25,-125.92 -281.25,-281.25l0.001,0.199l-0.001,-0.199c0,-155.33 125.92,-281.25 281.25,-281.25Zm-2.764,62.379c-8.998,-0.788 -8.998,-0.789 0,0c0,0 1.153,0.08 1.153,0.08l0.005,0l1.606,0.041c120.812,-0 218.75,97.938 218.75,218.75c0,0.136 0.001,0.272 0.002,0.408c-0.003,120.405 -97.94,218.342 -218.752,218.342c0,-0 0,-0 0,-0c-120.812,-0 -218.75,-97.938 -218.75,-218.75l-0.015,0.976l-0.041,0.609l0.056,-1.585c0,-120.812 97.938,-218.75 218.75,-218.75c-0.538,-0 -1.073,-0.014 -1.606,-0.041l-0.005,-0c-0.125,-0.006 -0.25,-0.013 -0.374,-0.021l-0.779,-0.059Z"></path><path d="M967.723,346.078c-0,-52.491 -20.852,-102.832 -57.969,-139.948c-37.116,-37.117 -87.457,-57.969 -139.948,-57.969c-113.06,0 -261.94,0 -375,0c-52.49,0 -102.831,20.852 -139.948,57.969c-37.117,37.116 -57.969,87.457 -57.969,139.948c0,113.06 0,261.94 0,375c0,52.49 20.852,102.831 57.969,139.948c37.117,37.117 87.458,57.969 139.948,57.969c113.06,-0 261.94,-0 375,-0c52.491,-0 102.832,-20.852 139.948,-57.969c37.117,-37.117 57.969,-87.458 57.969,-139.948l-0,-375Zm-62.5,0l-0,375c-0,35.914 -14.267,70.358 -39.663,95.754c-25.395,25.395 -59.839,39.663 -95.754,39.663l-375,-0c-35.914,-0 -70.358,-14.268 -95.754,-39.663c-25.395,-25.396 -39.663,-59.84 -39.663,-95.754c0,-113.06 0,-261.94 0,-375c0,-35.915 14.268,-70.359 39.663,-95.754c25.396,-25.396 59.84,-39.663 95.754,-39.663l375,0c35.915,0 70.359,14.267 95.754,39.663c25.396,25.395 39.663,59.839 39.663,95.754Zm-740.957,422.115l0,-469.231c0,-17.247 -14.002,-31.25 -31.25,-31.25c-17.247,0 -31.25,14.003 -31.25,31.25l0,469.231c0,17.248 14.003,31.25 31.25,31.25c17.248,0 31.25,-14.002 31.25,-31.25Zm333.391,-227.354c-9.887,-2.245 -19.024,-7.246 -26.307,-14.529c-1.755,-1.755 -3.378,-3.618 -4.86,-5.571c-6.149,-8.104 -15.858,-12.707 -26.024,-12.339c-10.166,0.367 -19.516,5.66 -25.064,14.187c-12.243,18.816 -18.903,40.922 -18.903,63.714c0,0.011 0,0.023 0,0.034c0,30.984 12.309,60.7 34.218,82.609c21.909,21.91 51.625,34.218 82.609,34.218l0.034,0c30.985,0 60.7,-12.308 82.61,-34.218c17.597,-17.597 29.001,-40.231 32.801,-64.514c2.992,9.677 3.227,20.084 0.564,30.025c-0.643,2.398 -1.445,4.734 -2.395,6.995c-3.943,9.377 -3.076,20.086 2.326,28.706c5.401,8.62 14.66,14.072 24.818,14.613c22.417,1.194 44.891,-4.09 64.629,-15.486c0.01,-0.006 0.02,-0.012 0.03,-0.018c26.833,-15.492 46.413,-41.009 54.433,-70.938c8.019,-29.928 3.821,-61.817 -11.671,-88.65c-0.006,-0.01 -0.012,-0.02 -0.017,-0.03c-15.493,-26.833 -41.01,-46.413 -70.939,-54.433c-24.418,-6.543 -50.142,-4.953 -73.36,4.273c6.982,-7.818 16.141,-13.502 26.417,-16.256c2.398,-0.642 4.822,-1.116 7.255,-1.423c10.093,-1.274 18.934,-7.38 23.698,-16.368c4.765,-8.988 4.856,-19.732 0.246,-28.8c-10.174,-20.01 -25.988,-36.831 -45.727,-48.227c-0.009,-0.006 -0.019,-0.012 -0.029,-0.017c-26.834,-15.493 -58.722,-19.691 -88.651,-11.671c-29.929,8.019 -55.446,27.599 -70.938,54.432c-0.006,0.01 -0.011,0.02 -0.017,0.03c-15.492,26.833 -19.691,58.722 -11.671,88.651c6.487,24.212 20.541,45.537 39.885,61.001Zm69.934,48.584c-0.747,13.283 -6.358,25.869 -15.815,35.327c-10.189,10.188 -24.007,15.912 -38.416,15.912l-0.034,0c-14.408,0 -28.227,-5.724 -38.415,-15.912c-8.523,-8.523 -13.922,-19.588 -15.443,-31.414c15.563,7.428 32.726,11.386 50.297,11.386l0.034,0c20.444,0 40.335,-5.358 57.792,-15.299Zm125.731,21.81c-1.349,-17.192 -6.502,-34.035 -15.288,-49.253c-0.006,-0.009 -0.012,-0.019 -0.017,-0.029c-10.222,-17.705 -24.808,-32.252 -42.146,-42.4c11.878,-5.994 25.583,-7.428 38.502,-3.966c13.918,3.729 25.784,12.834 32.988,25.312c0.006,0.01 0.011,0.02 0.017,0.03c7.204,12.478 9.157,27.307 5.428,41.224c-3.12,11.643 -10.003,21.851 -19.484,29.082Zm-101.82,-211.805c-14.215,9.764 -26.224,22.648 -35.01,37.865c-0.006,0.01 -0.012,0.02 -0.017,0.03c-10.222,17.705 -15.527,37.61 -15.647,57.699c-11.13,-7.289 -19.224,-18.441 -22.686,-31.361c-3.729,-13.917 -1.777,-28.746 5.427,-41.224c0.006,-0.01 0.012,-0.02 0.018,-0.03c7.204,-12.478 19.07,-21.583 32.987,-25.312c11.644,-3.12 23.925,-2.263 34.928,2.333Z"></path></svg>