<svg width="48" height="24" viewBox="0 0 48 24" fill="none" xmlns="http://www.w3.org/2000/svg">
<g clip-path="url(#clip0)">
<path d="M39.5992 6.79997V12.4H37.1992V6.79997H39.5992ZM39.9993 4.79997H36.7993C36.375 4.79997 35.9679 4.96854 35.6678 5.2686C35.3678 5.56866 35.1992 5.97566 35.1992 6.40001V12.8C35.1992 13.2243 35.3678 13.6313 35.6678 13.9314C35.9679 14.2314 36.375 14.4 36.7993 14.4H39.9993C40.4236 14.4 40.8306 14.2314 41.1306 13.9314C41.4307 13.6313 41.5992 13.2243 41.5992 12.8V6.40001C41.5992 5.97566 41.4307 5.56866 41.1306 5.2686C40.8306 4.96854 40.4236 4.79997 39.9993 4.79997Z" fill="#151528"/>
<path d="M29.9996 6.79997V12.4H27.5996V6.79997H29.9996ZM30.3997 4.79997H27.1996C26.7752 4.79997 26.3683 4.96854 26.0682 5.2686C25.7682 5.56866 25.5996 5.97566 25.5996 6.40001V12.8C25.5996 13.2243 25.7682 13.6313 26.0682 13.9314C26.3683 14.2314 26.7752 14.4 27.1996 14.4H30.3997C30.824 14.4 31.2309 14.2314 31.531 13.9314C31.8311 13.6313 31.9996 13.2243 31.9996 12.8V6.40001C31.9996 5.97566 31.8311 5.56866 31.531 5.2686C31.2309 4.96854 30.824 4.79997 30.3997 4.79997Z" fill="#151528"/>
<path d="M20.4 6.79997V12.4H18V6.79997H20.4ZM20.8 4.79997H17.6C17.1756 4.79997 16.7687 4.96854 16.4686 5.2686C16.1686 5.56866 16 5.97566 16 6.40001V12.8C16 13.2243 16.1686 13.6313 16.4686 13.9314C16.7687 14.2314 17.1756 14.4 17.6 14.4H20.8C21.2244 14.4 21.6313 14.2314 21.9314 13.9314C22.2315 13.6313 22.4 13.2243 22.4 12.8V6.40001C22.4 5.97566 22.2315 5.56866 21.9314 5.2686C21.6313 4.96854 21.2244 4.79997 20.8 4.79997Z" fill="#151528"/>
<path d="M10.8004 6.79997V12.4H8.40039V6.79997H10.8004ZM11.2003 4.79997H8.00037C7.57602 4.79997 7.16908 4.96854 6.86902 5.2686C6.56896 5.56866 6.40039 5.97566 6.40039 6.40001V12.8C6.40039 13.2243 6.56896 13.6313 6.86902 13.9314C7.16908 14.2314 7.57602 14.4 8.00037 14.4H11.2003C11.6247 14.4 12.0317 14.2314 12.3318 13.9314C12.6318 13.6313 12.8004 13.2243 12.8004 12.8V6.40001C12.8004 5.97566 12.6318 5.56866 12.3318 5.2686C12.0317 4.96854 11.6247 4.79997 11.2003 4.79997Z" fill="#151528"/>
<path d="M43.5993 19.2V21.4H4.39937V19.2H43.5993ZM43.9993 17.2H3.99935C3.51715 17.272 3.08145 17.5276 2.78328 17.9134C2.48512 18.2991 2.34758 18.7852 2.39937 19.27V21.33C2.34758 21.8148 2.48512 22.3008 2.78328 22.6866C3.08145 23.0723 3.51715 23.328 3.99935 23.4H43.9993C44.4815 23.328 44.9172 23.0723 45.2154 22.6866C45.5136 22.3008 45.6511 21.8148 45.5993 21.33V19.27C45.6511 18.7852 45.5136 18.2991 45.2154 17.9134C44.9172 17.5276 44.4815 17.272 43.9993 17.2Z" fill="#151528"/>
<path d="M46 1.99998V17.2H2V1.99998H46ZM46.4 -1.52588e-05H1.59998C1.17563 -1.52588e-05 0.768686 0.168554 0.468628 0.468613C0.16857 0.768671 0 1.17567 0 1.60002V17.6C0 18.0244 0.16857 18.4313 0.468628 18.7314C0.768686 19.0314 1.17563 19.2 1.59998 19.2H46.4C46.8244 19.2 47.2313 19.0314 47.5314 18.7314C47.8314 18.4313 48 18.0244 48 17.6V1.60002C48 1.17567 47.8314 0.768671 47.5314 0.468613C47.2313 0.168554 46.8244 -1.52588e-05 46.4 -1.52588e-05Z" fill="#151528"/>
</g>
<defs>
<clipPath id="clip0">
<rect width="48" height="23.4" fill="white"/>
</clipPath>
</defs>
</svg>
