<svg width="48" height="38" viewBox="0 0 48 38" fill="none" xmlns="http://www.w3.org/2000/svg">
<g clip-path="url(#clip0)">
<path d="M40.4004 0H39.6003C39.2821 0 38.9769 0.126458 38.7518 0.351501C38.5268 0.576545 38.4004 0.881752 38.4004 1.20001V18C38.4004 18.3183 38.5268 18.6235 38.7518 18.8485C38.9769 19.0736 39.2821 19.2 39.6003 19.2H40.4004C40.7187 19.2 41.0239 19.0736 41.2489 18.8485C41.4739 18.6235 41.6003 18.3183 41.6003 18V1.20001C41.6003 0.881752 41.4739 0.576545 41.2489 0.351501C41.0239 0.126458 40.7187 0 40.4004 0Z" fill="#151528"/>
<path d="M41.5992 29.39C41.6783 29.39 41.7557 29.4135 41.8215 29.4574C41.8873 29.5014 41.9386 29.5638 41.9688 29.6369C41.9991 29.71 42.007 29.7904 41.9915 29.868C41.9761 29.9456 41.938 30.0169 41.882 30.0728C41.8261 30.1288 41.7548 30.1669 41.6772 30.1823C41.5996 30.1978 41.5192 30.1899 41.4461 30.1596C41.373 30.1293 41.3106 30.078 41.2667 30.0122C41.2227 29.9465 41.1992 29.8691 41.1992 29.79C41.1992 29.6839 41.2414 29.5822 41.3164 29.5072C41.3914 29.4322 41.4931 29.39 41.5992 29.39ZM41.5992 27.39C41.1245 27.39 40.6605 27.5308 40.2658 27.7945C39.8712 28.0582 39.5636 28.433 39.3819 28.8716C39.2003 29.3101 39.1527 29.7927 39.2453 30.2582C39.3379 30.7238 39.5665 31.1514 39.9022 31.4871C40.2378 31.8227 40.6655 32.0513 41.1311 32.1439C41.5966 32.2365 42.0791 32.189 42.5177 32.0073C42.9562 31.8257 43.3311 31.5181 43.5948 31.1234C43.8585 30.7287 43.9992 30.2647 43.9992 29.79C43.9966 29.1543 43.7429 28.5454 43.2934 28.0959C42.8439 27.6463 42.2349 27.3926 41.5992 27.39Z" fill="#151528"/>
<path d="M35.2008 29.39C35.2799 29.39 35.3573 29.4135 35.4231 29.4574C35.4888 29.5014 35.5401 29.5638 35.5704 29.6369C35.6007 29.71 35.6085 29.7904 35.5931 29.868C35.5777 29.9456 35.5396 30.0169 35.4836 30.0728C35.4277 30.1288 35.3565 30.1669 35.2789 30.1823C35.2013 30.1978 35.1208 30.1899 35.0477 30.1596C34.9746 30.1293 34.9122 30.078 34.8683 30.0122C34.8243 29.9465 34.8009 29.8691 34.8009 29.79C34.8009 29.6839 34.8429 29.5822 34.9179 29.5072C34.993 29.4322 35.0947 29.39 35.2008 29.39ZM35.2008 27.39C34.7261 27.39 34.2621 27.5308 33.8674 27.7945C33.4727 28.0582 33.1651 28.433 32.9835 28.8716C32.8018 29.3101 32.7543 29.7927 32.8469 30.2582C32.9395 30.7238 33.1681 31.1514 33.5038 31.4871C33.8394 31.8227 34.2671 32.0513 34.7326 32.1439C35.1982 32.2365 35.6807 32.189 36.1192 32.0073C36.5578 31.8257 36.9327 31.5181 37.1964 31.1234C37.4601 30.7287 37.6008 30.2647 37.6008 29.79C37.5982 29.1543 37.3445 28.5454 36.895 28.0959C36.4455 27.6463 35.8365 27.3926 35.2008 27.39Z" fill="#151528"/>
<path d="M28.8004 29.39C28.8795 29.39 28.9568 29.4135 29.0226 29.4574C29.0884 29.5014 29.1396 29.5638 29.1699 29.6369C29.2002 29.71 29.2081 29.7904 29.1926 29.868C29.1772 29.9456 29.1392 30.0169 29.0833 30.0728C29.0273 30.1288 28.956 30.1669 28.8784 30.1823C28.8008 30.1978 28.7204 30.1899 28.6473 30.1596C28.5742 30.1293 28.5117 30.078 28.4678 30.0122C28.4238 29.9465 28.4004 29.8691 28.4004 29.79C28.4004 29.6839 28.4426 29.5822 28.5176 29.5072C28.5926 29.4322 28.6943 29.39 28.8004 29.39ZM28.8004 27.39C28.3257 27.39 27.8617 27.5308 27.467 27.7945C27.0724 28.0582 26.7647 28.433 26.583 28.8716C26.4014 29.3101 26.3539 29.7927 26.4465 30.2582C26.5391 30.7238 26.7676 31.1514 27.1033 31.4871C27.4389 31.8227 27.8666 32.0513 28.3322 32.1439C28.7977 32.2365 29.2802 32.189 29.7187 32.0073C30.1573 31.8257 30.5322 31.5181 30.7959 31.1234C31.0596 30.7287 31.2003 30.2647 31.2003 29.79C31.1977 29.1543 30.944 28.5454 30.4945 28.0959C30.045 27.6463 29.4361 27.3926 28.8004 27.39Z" fill="#151528"/>
<path d="M22.4 29.39C22.4791 29.39 22.5564 29.4135 22.6222 29.4574C22.6879 29.5014 22.7392 29.5638 22.7695 29.6369C22.7998 29.71 22.8078 29.7904 22.7923 29.868C22.7769 29.9456 22.7388 30.0169 22.6828 30.0728C22.6269 30.1288 22.5556 30.1669 22.478 30.1823C22.4004 30.1978 22.32 30.1899 22.2469 30.1596C22.1738 30.1293 22.1113 30.078 22.0674 30.0122C22.0234 29.9465 22 29.8691 22 29.79C22 29.6839 22.0421 29.5822 22.1172 29.5072C22.1922 29.4322 22.2939 29.39 22.4 29.39ZM22.4 27.39C21.9253 27.39 21.4613 27.5308 21.0666 27.7945C20.6719 28.0582 20.3644 28.433 20.1827 28.8716C20.0011 29.3101 19.9535 29.7927 20.0461 30.2582C20.1387 30.7238 20.3673 31.1514 20.703 31.4871C21.0386 31.8227 21.4662 32.0513 21.9317 32.1439C22.3973 32.2365 22.8799 32.189 23.3184 32.0073C23.757 31.8257 24.1318 31.5181 24.3955 31.1234C24.6592 30.7287 24.8 30.2647 24.8 29.79C24.7974 29.1543 24.5436 28.5454 24.0941 28.0959C23.6446 27.6463 23.0357 27.3926 22.4 27.39Z" fill="#151528"/>
<path d="M7.20077 29.39C7.27989 29.39 7.35728 29.4135 7.42306 29.4574C7.48884 29.5014 7.54013 29.5638 7.5704 29.6369C7.60068 29.71 7.60854 29.7904 7.59311 29.868C7.57767 29.9456 7.53955 30.0169 7.48361 30.0728C7.42767 30.1288 7.35649 30.1669 7.2789 30.1823C7.20131 30.1978 7.12079 30.1899 7.0477 30.1596C6.97461 30.1293 6.91221 30.078 6.86825 30.0122C6.8243 29.9465 6.80087 29.8691 6.80087 29.79C6.80087 29.6839 6.84292 29.5822 6.91794 29.5072C6.99295 29.4322 7.09469 29.39 7.20077 29.39ZM7.20077 27.39C6.7261 27.39 6.26208 27.5308 5.8674 27.7945C5.47272 28.0582 5.16514 28.433 4.98349 28.8716C4.80184 29.3101 4.75429 29.7927 4.84689 30.2582C4.9395 30.7238 5.16811 31.1514 5.50375 31.4871C5.8394 31.8227 6.26708 32.0513 6.73263 32.1439C7.19819 32.2365 7.68069 32.189 8.11923 32.0073C8.55777 31.8257 8.93266 31.5181 9.19638 31.1234C9.46009 30.7287 9.6008 30.2647 9.6008 29.79C9.59817 29.1543 9.34451 28.5454 8.89499 28.0959C8.44547 27.6463 7.83648 27.3926 7.20077 27.39Z" fill="#151528"/>
<path d="M42.0005 19.39V21.39H6.0005V19.39H42.0005ZM42.4005 17.39H5.60047C5.12622 17.4502 4.69404 17.6926 4.3954 18.0659C4.09675 18.4392 3.95512 18.9141 4.0005 19.39V21.39C3.95512 21.8659 4.09675 22.3408 4.3954 22.7141C4.69404 23.0874 5.12622 23.3298 5.60047 23.39H42.4005C42.8759 23.3322 43.3095 23.0905 43.6087 22.7166C43.9078 22.3427 44.0485 21.8664 44.0005 21.39V19.39C44.0485 18.9136 43.9078 18.4373 43.6087 18.0634C43.3095 17.6895 42.8759 17.4478 42.4005 17.39Z" fill="#151528"/>
<path d="M46 23.8V35.8H2V23.8H46ZM46.4 21.8H1.59998C1.17563 21.8 0.768686 21.9686 0.468628 22.2687C0.16857 22.5687 0 22.9757 0 23.4001V36.2C0 36.6244 0.16857 37.0314 0.468628 37.3314C0.768686 37.6315 1.17563 37.8 1.59998 37.8H46.4C46.8244 37.8 47.2313 37.6315 47.5314 37.3314C47.8314 37.0314 48 36.6244 48 36.2V23.39C48 22.9657 47.8314 22.5587 47.5314 22.2587C47.2313 21.9586 46.8244 21.79 46.4 21.79V21.8Z" fill="#151528"/>
</g>
<defs>
<clipPath id="clip0">
<rect width="48" height="37.8" fill="white"/>
</clipPath>
</defs>
</svg>
