<svg width="48" height="48" viewBox="0 0 48 48" fill="none" xmlns="http://www.w3.org/2000/svg">
<g clip-path="url(#clip0)">
<path d="M4.76017 41.6C4.44372 41.6 4.13437 41.6938 3.87126 41.8696C3.60814 42.0454 3.40306 42.2953 3.28196 42.5877C3.16086 42.8801 3.12916 43.2018 3.1909 43.5121C3.25263 43.8225 3.40506 44.1076 3.62882 44.3314C3.85259 44.5551 4.13767 44.7076 4.44804 44.7693C4.75841 44.831 5.08011 44.7993 5.37248 44.6782C5.66484 44.5571 5.91468 44.352 6.09049 44.0889C6.2663 43.8258 6.36015 43.5165 6.36015 43.2C6.36015 42.9899 6.31879 42.7818 6.23838 42.5877C6.15797 42.3936 6.04009 42.2172 5.89152 42.0687C5.74295 41.9201 5.5666 41.8022 5.37248 41.7218C5.17836 41.6414 4.97029 41.6 4.76017 41.6Z" fill="#151528"/>
<path d="M43.1996 41.6C42.8832 41.6 42.5738 41.6938 42.3107 41.8696C42.0476 42.0454 41.8425 42.2953 41.7214 42.5877C41.6003 42.8801 41.5686 43.2018 41.6303 43.5121C41.6921 43.8225 41.8445 44.1076 42.0683 44.3314C42.292 44.5551 42.5771 44.7076 42.8875 44.7693C43.1979 44.831 43.5196 44.7993 43.8119 44.6782C44.1043 44.5571 44.3541 44.352 44.5299 44.0889C44.7058 43.8258 44.7996 43.5165 44.7996 43.2C44.7996 42.9899 44.7582 42.7818 44.6778 42.5877C44.5974 42.3936 44.4795 42.2172 44.331 42.0687C44.1824 41.9201 44.0061 41.8022 43.8119 41.7218C43.6178 41.6414 43.4097 41.6 43.1996 41.6Z" fill="#151528"/>
<path d="M4.76017 3.20001C4.44372 3.20001 4.13437 3.29386 3.87126 3.46967C3.60814 3.64548 3.40306 3.89535 3.28196 4.18771C3.16086 4.48008 3.12916 4.80178 3.1909 5.11215C3.25263 5.42252 3.40506 5.7076 3.62882 5.93137C3.85259 6.15513 4.13767 6.30753 4.44804 6.36926C4.75841 6.431 5.08011 6.39933 5.37248 6.27823C5.66484 6.15713 5.91468 5.95205 6.09049 5.68893C6.2663 5.42582 6.36015 5.11647 6.36015 4.80002C6.36015 4.37567 6.19158 3.9687 5.89152 3.66864C5.59146 3.36858 5.18452 3.20001 4.76017 3.20001Z" fill="#151528"/>
<path d="M43.2004 3.20002C42.8833 3.19212 42.5709 3.27869 42.303 3.44874C42.0352 3.61879 41.8239 3.86461 41.6961 4.15501C41.5683 4.4454 41.5297 4.76725 41.5853 5.07963C41.6408 5.392 41.788 5.6808 42.008 5.90934C42.2281 6.13788 42.5112 6.29585 42.8212 6.36314C43.1313 6.43042 43.4544 6.404 43.7494 6.28724C44.0444 6.17048 44.298 5.96866 44.478 5.70741C44.658 5.44615 44.7564 5.13727 44.7604 4.82002C44.7604 4.39567 44.5919 3.9887 44.2918 3.68864C43.9917 3.38858 43.5848 3.22001 43.1605 3.22001L43.2004 3.20002Z" fill="#151528"/>
<path d="M13.19 10.21C15.0204 10.7189 16.7056 11.6506 18.11 12.93C19.2722 14.3224 20.1275 15.9444 20.62 17.69L19.16 19.16C18.5382 17.4487 17.5542 15.8918 16.2753 14.5956C14.9965 13.2995 13.4528 12.2947 11.75 11.65L13.19 10.21ZM12.57 8L8 12.57C10.5652 13.0706 12.9445 14.2637 14.88 16.02C17.24 18.38 18.29 22.86 18.29 22.86L22.86 18.28C22.86 18.28 21.86 13.85 19.52 11.52C17.5467 9.73708 15.128 8.52081 12.52 8H12.57Z" fill="#151528"/>
<path d="M28.8404 28.82C29.4623 30.5313 30.4462 32.0883 31.7251 33.3844C33.004 34.6805 34.5475 35.6853 36.2504 36.33L34.8204 37.82C32.9881 37.3157 31.3019 36.3835 29.9004 35.1C28.7277 33.7132 27.8681 32.0895 27.3804 30.34L28.8404 28.88V28.82ZM29.7204 25.18L25.1504 29.75C25.1504 29.75 26.1503 34.19 28.4803 36.52C30.4397 38.295 32.8401 39.5107 35.4304 40.04L40.0004 35.47C37.4358 34.9675 35.057 33.7746 33.1204 32.02C30.7604 29.66 29.7204 25.18 29.7204 25.18Z" fill="#151528"/>
<path d="M36.2408 11.91L37.6309 13.3C37.1273 15.1054 36.2058 16.7669 34.9409 18.15C33.5749 19.3056 31.9749 20.1517 30.2509 20.63L28.8309 19.21C30.491 18.5551 32.0139 17.5953 33.3209 16.38C34.5696 15.0893 35.5606 13.5721 36.2408 11.91ZM35.3209 8.16C34.8246 10.6999 33.6418 13.0552 31.9009 14.97C29.5709 17.3 25.1309 18.34 25.1309 18.34L29.6609 22.87C29.6609 22.87 34.0508 21.87 36.3608 19.57C38.1151 17.6291 39.3169 15.2532 39.8409 12.69L35.3209 8.16Z" fill="#151528"/>
<path d="M17.7601 27.37L19.1701 28.79C17.4851 29.4046 15.9522 30.3747 14.6754 31.6343C13.3985 32.8939 12.4077 34.4136 11.7701 36.09L10.3801 34.7C10.8707 32.8826 11.7897 31.2092 13.0601 29.82C14.4309 28.666 16.0338 27.8203 17.7601 27.34V27.37ZM18.3502 25.1C18.3502 25.1 13.9601 26.1 11.6501 28.4C9.89059 30.3387 8.68513 32.7151 8.16016 35.28L12.6901 39.81C13.1835 37.2712 14.3629 34.916 16.1002 33C18.4402 30.66 22.8701 29.63 22.8701 29.63L18.3502 25.1Z" fill="#151528"/>
<path d="M30.7598 24.03C32.3863 24.7889 34.1574 25.1879 35.9521 25.2C37.7469 25.212 39.5232 24.8369 41.1598 24.1V26.1C39.5281 27.0219 37.702 27.5461 35.8298 27.63C34.0469 27.4753 32.318 26.9399 30.7598 26.06V24.06V24.03ZM43.1598 20.83C41.015 22.2768 38.514 23.107 35.9297 23.23C32.6297 23.23 28.7598 20.83 28.7598 20.83V27.23C28.7598 27.23 32.5698 29.63 35.8298 29.63C38.4441 29.5015 40.9758 28.6726 43.1598 27.23V20.82V20.83Z" fill="#151528"/>
<path d="M12.1298 20.4C13.9113 20.5543 15.6396 21.0861 17.1998 21.96V23.96C15.5649 23.2499 13.8112 22.853 12.0298 22.79C10.2322 22.8196 8.45694 23.193 6.79974 23.89V21.89C8.43143 20.9681 10.2575 20.4439 12.1298 20.36V20.4ZM12.1298 18.36C9.49599 18.4993 6.94914 19.3494 4.75977 20.82V27.22C6.90573 25.7755 9.40595 24.9455 11.9897 24.82C15.2897 24.82 19.1598 27.22 19.1598 27.22V20.82C19.1598 20.82 15.3598 18.42 12.0898 18.42L12.1298 18.36Z" fill="#151528"/>
<path d="M23.9694 30.82C23.2106 32.4465 22.8115 34.2176 22.7994 36.0124C22.7874 37.8072 23.1626 39.5834 23.8994 41.22H21.8994C20.9775 39.5883 20.4533 37.7623 20.3694 35.89C20.5225 34.1069 21.058 32.3776 21.9394 30.82H23.9394H23.9694ZM27.1694 28.82H20.7594C20.7594 28.82 18.3594 32.62 18.3594 35.89C18.4879 38.5043 19.3168 41.036 20.7594 43.22H27.1594C25.7149 41.0741 24.8849 38.5738 24.7594 35.99C24.7594 32.69 27.1594 28.82 27.1594 28.82H27.1694Z" fill="#151528"/>
<path d="M26.0698 6.82001C26.9959 8.44992 27.5204 10.277 27.5998 12.15C27.4455 13.9315 26.9137 15.6598 26.0398 17.22H24.0398C24.749 15.5848 25.1458 13.8313 25.2098 12.05C25.1824 10.2522 24.8088 8.47653 24.1097 6.82001H26.1097H26.0698ZM27.2397 4.82001H20.7598C22.2066 6.96484 23.0368 9.46575 23.1598 12.05C23.1598 15.35 20.7598 19.22 20.7598 19.22H27.1598C27.1598 19.22 29.5598 15.41 29.5598 12.15C29.4313 9.5357 28.6024 7.00403 27.1598 4.82001H27.2397Z" fill="#151528"/>
<path d="M23.9996 19.6C24.8699 19.6 25.7206 19.8581 26.4441 20.3416C27.1677 20.825 27.7317 21.5122 28.0647 22.3162C28.3977 23.1202 28.4849 24.0049 28.3151 24.8584C28.1453 25.7119 27.7262 26.4959 27.1109 27.1113C26.4955 27.7266 25.7115 28.1457 24.858 28.3155C24.0045 28.4853 23.1198 28.3981 22.3158 28.0651C21.5119 27.732 20.8247 27.1681 20.3412 26.4445C19.8577 25.7209 19.5997 24.8702 19.5997 24C19.5997 22.833 20.0632 21.7139 20.8884 20.8887C21.7135 20.0636 22.8327 19.6 23.9996 19.6ZM23.9996 17.6C22.7338 17.6 21.4964 17.9753 20.444 18.6786C19.3915 19.3818 18.5712 20.3814 18.0868 21.5508C17.6024 22.7203 17.4756 24.0071 17.7226 25.2486C17.9695 26.4901 18.5791 27.6305 19.4742 28.5255C20.3692 29.4206 21.5096 30.0301 22.751 30.277C23.9925 30.524 25.2793 30.3972 26.4488 29.9128C27.6182 29.4284 28.6178 28.6081 29.321 27.5557C30.0243 26.5032 30.3996 25.2658 30.3996 24C30.3996 22.3026 29.7254 20.6748 28.5251 19.4745C27.3249 18.2743 25.697 17.6 23.9996 17.6Z" fill="#151528"/>
<path d="M24 2C28.3512 2 32.6046 3.29028 36.2225 5.70767C39.8404 8.12506 42.6602 11.561 44.3254 15.581C45.9905 19.6009 46.4261 24.0244 45.5773 28.292C44.7284 32.5596 42.6331 36.4796 39.5563 39.5563C36.4796 42.6331 32.5596 44.7284 28.292 45.5773C24.0244 46.4261 19.601 45.9905 15.581 44.3254C11.561 42.6603 8.12508 39.8404 5.70769 36.2225C3.2903 32.6047 1.99999 28.3512 1.99999 24C1.99999 18.1652 4.31785 12.5695 8.44365 8.44366C12.5695 4.31786 18.1652 2 24 2ZM24 0C19.2532 0 14.6131 1.40758 10.6663 4.04474C6.71953 6.68189 3.64339 10.4302 1.82689 14.8156C0.0103875 19.201 -0.464877 24.0266 0.461168 28.6822C1.38721 33.3377 3.67294 37.6141 7.02941 40.9706C10.3859 44.327 14.6623 46.6128 19.3179 47.5389C23.9734 48.4649 28.7989 47.9896 33.1844 46.1731C37.5698 44.3566 41.3181 41.2805 43.9552 37.3337C46.5924 33.3869 48 28.7468 48 24C48 17.6348 45.4714 11.5303 40.9706 7.02945C36.4697 2.52858 30.3652 0 24 0Z" fill="#151528"/>
<path d="M44.7609 2C45.0792 2 45.3844 2.12643 45.6094 2.35147C45.8345 2.57651 45.9609 2.88175 45.9609 3.20001V44.82C45.9609 45.1383 45.8345 45.4435 45.6094 45.6685C45.3844 45.8936 45.0792 46.02 44.7609 46.02H3.16095C2.84269 46.02 2.53742 45.8936 2.31238 45.6685C2.08733 45.4435 1.96094 45.1383 1.96094 44.82V3.22C1.96094 2.90174 2.08733 2.59653 2.31238 2.37149C2.53742 2.14645 2.84269 2.02002 3.16095 2.02002H44.7609V2ZM44.7609 0.0200195H3.16095C2.31226 0.0200195 1.49831 0.357159 0.898193 0.957275C0.298077 1.55739 -0.0390625 2.37131 -0.0390625 3.22V44.82C-0.0390625 45.6687 0.298077 46.4826 0.898193 47.0828C1.49831 47.6829 2.31226 48.02 3.16095 48.02H44.7609C45.6096 48.02 46.4236 47.6829 47.0237 47.0828C47.6238 46.4826 47.9609 45.6687 47.9609 44.82V3.22C47.9609 2.37131 47.6238 1.55739 47.0237 0.957275C46.4236 0.357159 45.6096 0.0200195 44.7609 0.0200195Z" fill="#151528"/>
</g>
<defs>
<clipPath id="clip0">
<rect width="48" height="48" fill="white"/>
</clipPath>
</defs>
</svg>
