<svg width="48" height="64" viewBox="0 0 48 64" fill="none" xmlns="http://www.w3.org/2000/svg">
<g clip-path="url(#clip0)">
<path d="M9.24902 49.6C9.07673 49.6019 8.90655 49.6382 8.74854 49.7069C8.59052 49.7756 8.44797 49.8753 8.3291 50L7.70911 50.64C7.4644 50.8997 7.32813 51.2431 7.32812 51.6C7.32813 51.9569 7.4644 52.3003 7.70911 52.56L11.4191 56.41C11.5384 56.5334 11.6814 56.6315 11.8395 56.6985C11.9975 56.7655 12.1674 56.8 12.3391 56.8C12.5123 56.8002 12.6837 56.7659 12.8434 56.6989C13.0031 56.6319 13.1478 56.5337 13.269 56.41L13.889 55.77C14.1344 55.5086 14.271 55.1636 14.271 54.805C14.271 54.4465 14.1344 54.1014 13.889 53.84L10.1791 50C10.0587 49.8745 9.91438 49.7745 9.75464 49.7058C9.5949 49.6371 9.42291 49.6011 9.24902 49.6Z" fill="#151528"/>
<path d="M27.1201 35.92C27.0677 35.9196 27.0158 35.9301 26.9677 35.9507C26.9195 35.9714 26.8761 36.0018 26.8402 36.04L10.4202 52.44C10.3824 52.4773 10.3524 52.5216 10.3319 52.5705C10.3114 52.6195 10.3008 52.672 10.3008 52.725C10.3008 52.7781 10.3114 52.8306 10.3319 52.8795C10.3524 52.9284 10.3824 52.9728 10.4202 53.0101L10.9901 53.57C11.026 53.6083 11.0695 53.6386 11.1177 53.6593C11.1659 53.6799 11.2177 53.6904 11.2701 53.69C11.3225 53.6899 11.3743 53.6791 11.4224 53.6585C11.4705 53.6379 11.5139 53.6078 11.5502 53.57L27.9602 37.17C28.0319 37.0924 28.0717 36.9907 28.0717 36.8851C28.0717 36.7794 28.0319 36.6776 27.9602 36.6L27.3901 36.04C27.3539 36.0023 27.3104 35.9722 27.2623 35.9516C27.2142 35.931 27.1624 35.9202 27.1101 35.92H27.1201Z" fill="#151528"/>
<path d="M42.4195 58C42.4986 58 42.5759 58.0235 42.6417 58.0674C42.7075 58.1114 42.7588 58.1738 42.789 58.2469C42.8193 58.32 42.8273 58.4005 42.8119 58.4781C42.7964 58.5557 42.7583 58.6269 42.7024 58.6828C42.6464 58.7388 42.5751 58.7769 42.4975 58.7923C42.4199 58.8078 42.3395 58.7998 42.2664 58.7696C42.1934 58.7393 42.1308 58.688 42.0869 58.6222C42.0429 58.5564 42.0195 58.4791 42.0195 58.4C42.0195 58.2939 42.0617 58.1922 42.1367 58.1172C42.2117 58.0421 42.3134 58 42.4195 58ZM42.4195 56C41.9448 56 41.4808 56.1408 41.0861 56.4045C40.6915 56.6682 40.3839 57.0431 40.2022 57.4816C40.0206 57.9201 39.973 58.4027 40.0656 58.8683C40.1582 59.3338 40.3869 59.7614 40.7225 60.0971C41.0581 60.4327 41.4857 60.6613 41.9513 60.7539C42.4168 60.8465 42.8994 60.799 43.338 60.6173C43.7765 60.4357 44.1513 60.128 44.415 59.7334C44.6787 59.3387 44.8195 58.8747 44.8195 58.4C44.8195 57.7635 44.5666 57.1531 44.1165 56.703C43.6665 56.2529 43.056 56 42.4195 56Z" fill="#151528"/>
<path d="M5.59924 58C5.67836 58 5.75563 58.0235 5.82141 58.0674C5.88719 58.1114 5.93847 58.1738 5.96875 58.2469C5.99902 58.32 6.00689 58.4005 5.99145 58.4781C5.97602 58.5557 5.93802 58.6269 5.88208 58.6828C5.82614 58.7388 5.75484 58.7769 5.67725 58.7923C5.59965 58.8078 5.51926 58.7998 5.44617 58.7696C5.37308 58.7393 5.31055 58.688 5.2666 58.6222C5.22265 58.5564 5.19922 58.4791 5.19922 58.4C5.19922 58.3475 5.20951 58.2954 5.22961 58.2469C5.24972 58.1984 5.27926 58.1543 5.31641 58.1172C5.35355 58.08 5.39764 58.0506 5.44617 58.0305C5.4947 58.0104 5.54671 58 5.59924 58ZM5.59924 56C5.12457 56 4.66055 56.1408 4.26587 56.4045C3.87119 56.6682 3.56349 57.0431 3.38184 57.4816C3.20019 57.9201 3.15276 58.4027 3.24536 58.8683C3.33797 59.3338 3.56645 59.7614 3.9021 60.0971C4.23775 60.4327 4.66543 60.6613 5.13098 60.7539C5.59654 60.8465 6.07904 60.799 6.51758 60.6173C6.95612 60.4357 7.33101 60.128 7.59473 59.7334C7.85844 59.3387 7.99915 58.8747 7.99915 58.4C7.99915 57.7635 7.74635 57.1531 7.29626 56.703C6.84618 56.2529 6.23576 56 5.59924 56Z" fill="#151528"/>
<path d="M42.4195 5.19998C42.4986 5.19998 42.5759 5.22347 42.6417 5.26743C42.7075 5.31138 42.7588 5.37384 42.789 5.44693C42.8193 5.52002 42.8273 5.60048 42.8119 5.67807C42.7964 5.75566 42.7583 5.8269 42.7024 5.88284C42.6464 5.93878 42.5751 5.97691 42.4975 5.99234C42.4199 6.00777 42.3395 5.99985 42.2664 5.96957C42.1934 5.9393 42.1308 5.88801 42.0869 5.82224C42.0429 5.75646 42.0195 5.67912 42.0195 5.60001C42.0195 5.49392 42.0617 5.39218 42.1367 5.31717C42.2117 5.24215 42.3134 5.19998 42.4195 5.19998ZM42.4195 3.19998C41.9448 3.19998 41.4808 3.34075 41.0861 3.60446C40.6915 3.86818 40.3839 4.24301 40.2022 4.68155C40.0206 5.12009 39.973 5.60265 40.0656 6.06821C40.1582 6.53376 40.3869 6.96144 40.7225 7.29709C41.0581 7.63273 41.4857 7.86128 41.9513 7.95389C42.4168 8.04649 42.8994 7.999 43.338 7.81735C43.7765 7.6357 44.1513 7.32806 44.415 6.93338C44.6787 6.5387 44.8195 6.07468 44.8195 5.60001C44.8195 4.96349 44.5666 4.35307 44.1165 3.90298C43.6665 3.4529 43.056 3.19998 42.4195 3.19998Z" fill="#151528"/>
<path d="M5.59924 5.19998C5.67836 5.19998 5.75563 5.22347 5.82141 5.26743C5.88719 5.31138 5.93847 5.37384 5.96875 5.44693C5.99902 5.52002 6.00689 5.60048 5.99145 5.67807C5.97602 5.75566 5.93802 5.8269 5.88208 5.88284C5.82614 5.93878 5.75484 5.97691 5.67725 5.99234C5.59965 6.00777 5.51926 5.99985 5.44617 5.96957C5.37308 5.9393 5.31055 5.88801 5.2666 5.82224C5.22265 5.75646 5.19922 5.67912 5.19922 5.60001C5.19922 5.54748 5.20951 5.49546 5.22961 5.44693C5.24972 5.3984 5.27926 5.35431 5.31641 5.31717C5.35355 5.28003 5.39764 5.25054 5.44617 5.23044C5.4947 5.21034 5.54671 5.19998 5.59924 5.19998ZM5.59924 3.19998C5.12457 3.19998 4.66055 3.34075 4.26587 3.60446C3.87119 3.86818 3.56349 4.24301 3.38184 4.68155C3.20019 5.12009 3.15276 5.60265 3.24536 6.06821C3.33797 6.53376 3.56645 6.96144 3.9021 7.29709C4.23775 7.63273 4.66543 7.86128 5.13098 7.95389C5.59654 8.04649 6.07904 7.999 6.51758 7.81735C6.95612 7.6357 7.33101 7.32806 7.59473 6.93338C7.85844 6.5387 7.99915 6.07468 7.99915 5.60001C7.99915 4.96349 7.74635 4.35307 7.29626 3.90298C6.84618 3.4529 6.23576 3.19998 5.59924 3.19998Z" fill="#151528"/>
<path d="M23.9996 23.6C24.0787 23.6 24.1561 23.6235 24.2219 23.6674C24.2877 23.7114 24.339 23.7739 24.3692 23.847C24.3995 23.92 24.4074 24.0004 24.3919 24.078C24.3765 24.1556 24.3384 24.2269 24.2824 24.2829C24.2265 24.3388 24.1553 24.3769 24.0777 24.3923C24.0001 24.4077 23.9196 24.3998 23.8465 24.3695C23.7734 24.3393 23.711 24.288 23.6671 24.2223C23.6231 24.1565 23.5997 24.0791 23.5997 24C23.5997 23.8939 23.6418 23.7922 23.7168 23.7172C23.7918 23.6422 23.8935 23.6 23.9996 23.6ZM23.9996 21.6C23.5249 21.6 23.0609 21.7408 22.6662 22.0045C22.2715 22.2682 21.964 22.643 21.7823 23.0816C21.6007 23.5201 21.5531 24.0027 21.6457 24.4682C21.7383 24.9338 21.9669 25.3614 22.3026 25.6971C22.6382 26.0327 23.0659 26.2613 23.5315 26.3539C23.997 26.4465 24.4795 26.399 24.9181 26.2173C25.3566 26.0357 25.7315 25.7281 25.9952 25.3334C26.2589 24.9387 26.3996 24.4747 26.3996 24C26.3996 23.3635 26.1468 22.753 25.6967 22.3029C25.2467 21.8529 24.6361 21.6 23.9996 21.6Z" fill="#151528"/>
<path d="M23.9996 19.6C24.8698 19.6 25.7206 19.858 26.4442 20.3415C27.1677 20.825 27.7316 21.5122 28.0646 22.3162C28.3977 23.1202 28.4849 24.0049 28.3151 24.8584C28.1454 25.7119 27.7263 26.4959 27.1109 27.1113C26.4956 27.7266 25.7115 28.1457 24.858 28.3155C24.0045 28.4852 23.1199 28.3981 22.3159 28.0651C21.5119 27.7321 20.8246 27.1681 20.3411 26.4445C19.8577 25.721 19.5997 24.8703 19.5997 24C19.6023 22.8339 20.0667 21.7162 20.8913 20.8916C21.7159 20.067 22.8334 19.6026 23.9996 19.6ZM23.9996 17.6C22.7338 17.6 21.4964 17.9754 20.4439 18.6786C19.3914 19.3819 18.5711 20.3814 18.0867 21.5508C17.6023 22.7203 17.4757 24.0071 17.7226 25.2486C17.9695 26.49 18.5791 27.6304 19.4742 28.5255C20.3692 29.4205 21.5096 30.0301 22.751 30.277C23.9925 30.524 25.2794 30.3972 26.4488 29.9128C27.6182 29.4284 28.6177 28.6081 29.321 27.5556C30.0242 26.5032 30.3996 25.2658 30.3996 24C30.3996 22.3026 29.7253 20.6748 28.5251 19.4745C27.3249 18.2743 25.697 17.6 23.9996 17.6Z" fill="#151528"/>
<path d="M24 6.00003C27.5601 6.00003 31.0403 7.05567 34.0004 9.03354C36.9605 11.0114 39.2675 13.8227 40.6299 17.1117C41.9923 20.4008 42.3487 24.02 41.6542 27.5116C40.9596 31.0033 39.2453 34.2106 36.7279 36.7279C34.2106 39.2453 31.0034 40.9596 27.5117 41.6541C24.0201 42.3487 20.4008 41.9922 17.1117 40.6299C13.8226 39.2675 11.0114 36.9604 9.03358 34.0003C7.05571 31.0402 6.00001 27.5601 6.00001 24C6.00001 19.2261 7.89645 14.6477 11.2721 11.2721C14.6478 7.89641 19.2261 6.00003 24 6.00003ZM24 4.00003C20.0444 4.00003 16.1777 5.17301 12.8887 7.37064C9.5997 9.56826 7.03622 12.6918 5.52247 16.3463C4.00872 20.0009 3.61258 24.0222 4.38429 27.9018C5.15599 31.7814 7.06087 35.3451 9.85792 38.1421C12.655 40.9392 16.2187 42.844 20.0983 43.6157C23.9779 44.3874 27.9992 43.9914 31.6537 42.4776C35.3082 40.9639 38.4318 38.4004 40.6294 35.1114C42.827 31.8224 44 27.9557 44 24C44 18.6957 41.8929 13.6086 38.1422 9.85788C34.3915 6.10715 29.3043 4.00003 24 4.00003Z" fill="#151528"/>
<path d="M46 2.00003V62H2V2.00003H46ZM46.4 3.05176e-05H1.6001C1.17575 3.05176e-05 0.768686 0.1686 0.468628 0.468658C0.16857 0.768717 0 1.17566 0 1.60001V62.4C0 62.8243 0.16857 63.2313 0.468628 63.5314C0.768686 63.8315 1.17575 64 1.6001 64H46.42C46.8444 64 47.2513 63.8315 47.5514 63.5314C47.8514 63.2313 48.02 62.8243 48.02 62.4V1.60001C48.02 1.17566 47.8514 0.768717 47.5514 0.468658C47.2513 0.1686 46.8444 3.05176e-05 46.42 3.05176e-05H46.4Z" fill="#151528"/>
</g>
<defs>
<clipPath id="clip0">
<rect width="48" height="64" fill="white"/>
</clipPath>
</defs>
</svg>
