<svg width="48" height="30" viewBox="0 0 48 30" fill="none" xmlns="http://www.w3.org/2000/svg">
<g clip-path="url(#clip0)">
<path d="M15.4004 15L18.4304 20.55L21.1504 17.63L15.4004 15Z" fill="#151528"/>
<path d="M12.3704 9.44995L9.65039 12.37L15.4004 15L12.3704 9.44995Z" fill="#151528"/>
<path d="M18.2304 9.33997L15.4004 15L21.0604 12.17L18.2304 9.33997Z" fill="#151528"/>
<path d="M15.4002 15L9.74023 17.83L12.5702 20.66L15.4002 15Z" fill="#151528"/>
<path d="M21.4004 13L15.4004 15L21.4004 17V13Z" fill="#151528"/>
<path d="M9.40039 13V17L15.4004 15L9.40039 13Z" fill="#151528"/>
<path d="M17.4004 9H13.4004L15.4004 15L17.4004 9Z" fill="#151528"/>
<path d="M15.4004 15L13.4004 21H17.4004L15.4004 15Z" fill="#151528"/>
<path d="M15.4003 13C15.0048 13 14.6182 13.1173 14.2893 13.337C13.9604 13.5568 13.7041 13.8692 13.5527 14.2346C13.4013 14.6001 13.3616 15.0022 13.4388 15.3902C13.516 15.7782 13.7065 16.1345 13.9862 16.4142C14.2659 16.694 14.6222 16.8844 15.0102 16.9615C15.3982 17.0387 15.8003 16.9992 16.1657 16.8478C16.5312 16.6964 16.8435 16.44 17.0633 16.1111C17.2831 15.7822 17.4003 15.3956 17.4003 15C17.4003 14.4696 17.1897 13.9609 16.8147 13.5858C16.4396 13.2107 15.9308 13 15.4003 13Z" fill="#151528"/>
<path d="M15.4003 7C16.9826 7 18.5293 7.46918 19.8449 8.34824C21.1605 9.22729 22.1859 10.4767 22.7914 11.9385C23.3969 13.4003 23.5553 15.0089 23.2466 16.5607C22.9379 18.1126 22.176 19.538 21.0572 20.6569C19.9383 21.7757 18.5129 22.5376 16.9611 22.8463C15.4092 23.155 13.8007 22.9966 12.3389 22.3911C10.8771 21.7856 9.62762 20.7602 8.74857 19.4446C7.86952 18.129 7.4003 16.5823 7.4003 15C7.4003 12.8783 8.24315 10.8434 9.74344 9.34314C11.2437 7.84285 13.2786 7 15.4003 7ZM15.4003 5C13.4225 5 11.4891 5.58649 9.84464 6.6853C8.20015 7.78412 6.91841 9.3459 6.16153 11.1732C5.40466 13.0004 5.20671 15.0111 5.59257 16.9509C5.97842 18.8907 6.93073 20.6725 8.32926 22.071C9.72778 23.4696 11.5097 24.422 13.4495 24.8079C15.3893 25.1937 17.3999 24.9956 19.2272 24.2388C21.0545 23.4819 22.6162 22.2002 23.715 20.5557C24.8138 18.9112 25.4003 16.9778 25.4003 15C25.4003 12.3478 24.3468 9.80429 22.4715 7.92892C20.5961 6.05356 18.0525 5 15.4003 5Z" fill="#151528"/>
<path d="M39.7706 7.5C39.8108 7.5984 39.8312 7.70373 39.8307 7.81V11.27C39.8323 11.3764 39.8118 11.4819 39.7706 11.58H33.8907C33.8495 11.4819 33.8291 11.3764 33.8307 11.27V7.81C33.8302 7.70373 33.8506 7.5984 33.8907 7.5H39.7706ZM40.0107 5.5H33.6506C33.1063 5.57252 32.6118 5.85438 32.272 6.28571C31.9321 6.71703 31.7738 7.26383 31.8307 7.81V11.27C31.7712 11.8166 31.9285 12.3648 32.2688 12.7968C32.6091 13.2287 33.1052 13.5099 33.6506 13.58H40.0107C40.5561 13.5099 41.0523 13.2287 41.3926 12.7968C41.7329 12.3648 41.8902 11.8166 41.8307 11.27V7.81C41.8875 7.26383 41.7292 6.71703 41.3894 6.28571C41.0496 5.85438 40.555 5.57252 40.0107 5.5Z" fill="#151528"/>
<path d="M38.7401 19.15H34.92C34.6624 19.1243 34.4048 19.1995 34.2015 19.3599C33.9982 19.5203 33.8651 19.7534 33.8301 20.0099V21.2899C33.8651 21.5465 33.9982 21.7795 34.2015 21.9399C34.4048 22.1003 34.6624 22.1756 34.92 22.15H38.7401C38.9978 22.1756 39.2553 22.1003 39.4586 21.9399C39.6619 21.7795 39.7951 21.5465 39.8301 21.2899V20.0099C39.7951 19.7534 39.6619 19.5203 39.4586 19.3599C39.2553 19.1995 38.9978 19.1243 38.7401 19.15Z" fill="#151528"/>
<path d="M45.9991 2V28H1.99913V2H45.9991ZM46.279 0H1.70909C1.21906 0.0433548 0.765598 0.277065 0.445908 0.65097C0.126219 1.02488 -0.0341839 1.50919 -0.000869232 2V28C-0.0368188 28.4914 0.122535 28.9772 0.442734 29.3517C0.762934 29.7262 1.21806 29.9592 1.70909 30H46.279C46.7719 29.9617 47.2296 29.7298 47.5519 29.355C47.8742 28.9802 48.035 28.493 47.9991 28V2C48.0323 1.5076 47.8705 1.02189 47.5487 0.647705C47.2269 0.273524 46.7709 0.040884 46.279 0Z" fill="#151528"/>
</g>
<defs>
<clipPath id="clip0">
<rect width="48" height="30" fill="white"/>
</clipPath>
</defs>
</svg>
