<svg width="48" height="48" viewBox="0 0 48 48" fill="none" xmlns="http://www.w3.org/2000/svg">
<g clip-path="url(#clip0)">
<path d="M23.2004 16H22.4004V17.6H23.2004V16Z" fill="#151528"/>
<path d="M23.2004 19.2H22.4004V20.8H23.2004V19.2Z" fill="#151528"/>
<path d="M23.2004 12.8H22.4004V14.4H23.2004V12.8Z" fill="#151528"/>
<path d="M36.8 16H36V17.6H36.8V16Z" fill="#151528"/>
<path d="M36.8 19.2H36V20.8H36.8V19.2Z" fill="#151528"/>
<path d="M36.8 12.8H36V14.4H36.8V12.8Z" fill="#151528"/>
<path d="M30.4008 23.2H28.8008V24H30.4008V23.2Z" fill="#151528"/>
<path d="M33.6 23.2H32V24H33.6V23.2Z" fill="#151528"/>
<path d="M27.1996 23.2H25.5996V24H27.1996V23.2Z" fill="#151528"/>
<path d="M30.4008 9.6H28.8008V10.4H30.4008V9.6Z" fill="#151528"/>
<path d="M33.6 9.6H32V10.4H33.6V9.6Z" fill="#151528"/>
<path d="M27.1996 9.6H25.5996V10.4H27.1996V9.6Z" fill="#151528"/>
<path d="M41.6 10.4C41.2835 10.4 40.9742 10.4938 40.711 10.6696C40.4479 10.8454 40.2429 11.0953 40.1218 11.3877C40.0007 11.68 39.969 12.0017 40.0307 12.3121C40.0925 12.6225 40.2448 12.9076 40.4686 13.1313C40.6924 13.3551 40.9775 13.5075 41.2878 13.5692C41.5982 13.631 41.9199 13.5993 42.2123 13.4782C42.5046 13.3571 42.7545 13.152 42.9303 12.8889C43.1061 12.6258 43.1999 12.3164 43.1999 12C43.2013 11.7895 43.1608 11.5808 43.0809 11.3861C43.001 11.1914 42.8831 11.0145 42.7342 10.8656C42.5854 10.7168 42.4086 10.599 42.2138 10.5191C42.0191 10.4391 41.8104 10.3987 41.6 10.4Z" fill="#151528"/>
<path d="M41.6 4.79996C41.2835 4.79996 40.9742 4.8938 40.711 5.06961C40.4479 5.24542 40.2429 5.49533 40.1218 5.78769C40.0007 6.08005 39.969 6.40176 40.0307 6.71213C40.0925 7.0225 40.2448 7.30758 40.4686 7.53134C40.6924 7.75511 40.9775 7.90747 41.2878 7.96921C41.5982 8.03095 41.9199 7.99931 42.2123 7.87821C42.5046 7.75711 42.7545 7.55203 42.9303 7.28891C43.1061 7.02579 43.1999 6.71645 43.1999 6.4C43.2013 6.18951 43.1608 5.98082 43.0809 5.7861C43.001 5.59138 42.8831 5.4145 42.7342 5.26566C42.5854 5.11682 42.4086 4.99898 42.2138 4.91904C42.0191 4.8391 41.8104 4.79863 41.6 4.79996Z" fill="#151528"/>
<path d="M36.8004 30.4H22.4004V32H36.8004V30.4Z" fill="#151528"/>
<path d="M36.8004 33.6H22.4004V35.2H36.8004V33.6Z" fill="#151528"/>
<path d="M36.8004 36.8H22.4004V38.4H36.8004V36.8Z" fill="#151528"/>
<path d="M11.6008 35.6V40.4H6.80081V35.6H11.6008ZM12.0008 33.6H6.40079C6.1903 33.5986 5.98168 33.6391 5.78696 33.719C5.59224 33.799 5.41529 33.9168 5.26645 34.0656C5.11761 34.2145 4.99983 34.3914 4.91989 34.5861C4.83996 34.7808 4.79948 34.9895 4.80081 35.2V40.8C4.80081 41.2243 4.96938 41.6313 5.26944 41.9314C5.5695 42.2314 5.97644 42.4 6.40079 42.4H12.0008C12.4252 42.4 12.8321 42.2314 13.1322 41.9314C13.4322 41.6313 13.6008 41.2243 13.6008 40.8V35.2C13.6008 34.7756 13.4322 34.3686 13.1322 34.0686C12.8321 33.7685 12.4252 33.6 12.0008 33.6Z" fill="#151528"/>
<path d="M11.6004 4.79999H10.8004C10.6943 4.79999 10.5926 4.84216 10.5176 4.91718C10.4426 4.99219 10.4004 5.09393 10.4004 5.20001V29.2C10.4004 29.3061 10.4426 29.4078 10.5176 29.4828C10.5926 29.5579 10.6943 29.6 10.8004 29.6H11.6004C11.7065 29.6 11.8082 29.5579 11.8832 29.4828C11.9583 29.4078 12.0004 29.3061 12.0004 29.2V5.20001C12.0004 5.09393 11.9583 4.99219 11.8832 4.91718C11.8082 4.84216 11.7065 4.79999 11.6004 4.79999Z" fill="#151528"/>
<path d="M7.6004 4.79999H6.80042C6.69433 4.79999 6.59259 4.84216 6.51758 4.91718C6.44256 4.99219 6.40039 5.09393 6.40039 5.20001V29.2C6.40039 29.3061 6.44256 29.4078 6.51758 29.4828C6.59259 29.5579 6.69433 29.6 6.80042 29.6H7.6004C7.70649 29.6 7.80823 29.5579 7.88324 29.4828C7.95825 29.4078 8.00043 29.3061 8.00043 29.2V5.20001C8.00043 5.09393 7.95825 4.99219 7.88324 4.91718C7.80823 4.84216 7.70649 4.79999 7.6004 4.79999Z" fill="#151528"/>
<path d="M34.0005 12.4V21.2H25.2305V12.4H34.0305H34.0005ZM34.4305 10.4H24.8305C24.62 10.3987 24.4113 10.4391 24.2166 10.5191C24.0219 10.599 23.845 10.7168 23.6962 10.8656C23.5474 11.0145 23.4296 11.1914 23.3496 11.3861C23.2697 11.5808 23.2292 11.7895 23.2305 12V21.5999C23.2305 21.8101 23.2719 22.0181 23.3523 22.2123C23.4327 22.4064 23.5506 22.5828 23.6991 22.7314C23.8477 22.8799 24.0241 22.9977 24.2182 23.0782C24.4123 23.1586 24.6204 23.2 24.8305 23.2H34.4305C34.6406 23.2 34.8486 23.1586 35.0428 23.0782C35.2369 22.9977 35.4133 22.8799 35.5619 22.7314C35.7105 22.5828 35.8283 22.4064 35.9087 22.2123C35.9891 22.0181 36.0305 21.8101 36.0305 21.5999V12C36.0305 11.5756 35.862 11.1687 35.5619 10.8686C35.2619 10.5686 34.8548 10.4 34.4305 10.4Z" fill="#151528"/>
<path d="M44.7993 2C45.1175 2 45.4228 2.1264 45.6479 2.35144C45.8729 2.57648 45.9993 2.88175 45.9993 3.20001V44.8C45.9993 44.9576 45.9683 45.1136 45.908 45.2592C45.8477 45.4048 45.7593 45.5371 45.6479 45.6485C45.5365 45.7599 45.4041 45.8483 45.2585 45.9086C45.1129 45.9689 44.9568 46 44.7993 46H3.22931C3.07172 46 2.91567 45.9689 2.77008 45.9086C2.62449 45.8483 2.49223 45.7599 2.3808 45.6485C2.26937 45.5371 2.18097 45.4048 2.12067 45.2592C2.06036 45.1136 2.0293 44.9576 2.0293 44.8V3.20001C2.0293 2.88175 2.15575 2.57648 2.3808 2.35144C2.60584 2.1264 2.91105 2 3.22931 2H44.8293H44.7993ZM44.8293 0H3.22931C2.38062 0 1.56667 0.337139 0.966553 0.937256C0.366436 1.53737 0.0292969 2.35132 0.0292969 3.20001V44.8C0.0292969 45.6487 0.366436 46.4626 0.966553 47.0627C1.56667 47.6629 2.38062 48 3.22931 48H44.8293C45.678 48 46.492 47.6629 47.0921 47.0627C47.6922 46.4626 48.0294 45.6487 48.0294 44.8V3.20001C48.0294 2.35132 47.6922 1.53737 47.0921 0.937256C46.492 0.337139 45.678 0 44.8293 0Z" fill="#151528"/>
</g>
<defs>
<clipPath id="clip0">
<rect width="48" height="48" fill="white"/>
</clipPath>
</defs>
</svg>
