<svg width="48" height="64" viewBox="0 0 48 64" fill="none" xmlns="http://www.w3.org/2000/svg">
<g clip-path="url(#clip0)">
<path d="M42.4 58C42.4525 58 42.5045 58.0104 42.5531 58.0305C42.6016 58.0506 42.6457 58.08 42.6828 58.1172C42.72 58.1543 42.7494 58.1984 42.7695 58.2469C42.7896 58.2955 42.8 58.3475 42.8 58.4C42.8 58.4526 42.7896 58.5046 42.7695 58.5531C42.7494 58.6016 42.72 58.6457 42.6828 58.6829C42.6457 58.72 42.6016 58.7494 42.5531 58.7695C42.5045 58.7896 42.4525 58.8 42.4 58.8C42.2939 58.8 42.1922 58.7579 42.1172 58.6829C42.0421 58.6078 42 58.5061 42 58.4C42 58.2939 42.0421 58.1922 42.1172 58.1172C42.1922 58.0422 42.2939 58 42.4 58ZM42.4 56C41.9253 56 41.4613 56.1408 41.0666 56.4045C40.6719 56.6682 40.3644 57.043 40.1827 57.4816C40.0011 57.9201 39.9535 58.4027 40.0461 58.8682C40.1387 59.3338 40.3673 59.7614 40.703 60.097C41.0386 60.4327 41.4662 60.6613 41.9317 60.7539C42.3973 60.8465 42.8799 60.799 43.3184 60.6173C43.757 60.4357 44.1318 60.1281 44.3955 59.7334C44.6592 59.3387 44.8 58.8747 44.8 58.4C44.8 58.0849 44.7379 57.7727 44.6173 57.4816C44.4967 57.1904 44.3199 56.9258 44.097 56.7029C43.8742 56.4801 43.6096 56.3033 43.3184 56.1827C43.0273 56.0621 42.7152 56 42.4 56Z" fill="#151528"/>
<path d="M5.59921 58C5.65174 58 5.70376 58.0104 5.75229 58.0305C5.80082 58.0506 5.8449 58.08 5.88205 58.1172C5.91919 58.1543 5.94874 58.1984 5.96884 58.2469C5.98894 58.2955 5.99924 58.3475 5.99924 58.4C5.99924 58.4526 5.98894 58.5046 5.96884 58.5531C5.94874 58.6016 5.91919 58.6457 5.88205 58.6829C5.8449 58.72 5.80082 58.7494 5.75229 58.7695C5.70376 58.7896 5.65174 58.8 5.59921 58.8C5.54668 58.8 5.49467 58.7896 5.44613 58.7695C5.3976 58.7494 5.35352 58.72 5.31637 58.6829C5.27923 58.6457 5.24981 58.6016 5.2297 58.5531C5.2096 58.5046 5.19919 58.4526 5.19919 58.4C5.19919 58.3475 5.2096 58.2955 5.2297 58.2469C5.24981 58.1984 5.27923 58.1543 5.31637 58.1172C5.35352 58.08 5.3976 58.0506 5.44613 58.0305C5.49467 58.0104 5.54668 58 5.59921 58ZM5.59921 56C5.12454 56 4.66052 56.1408 4.26584 56.4045C3.87116 56.6682 3.56358 57.043 3.38193 57.4816C3.20028 57.9201 3.15272 58.4027 3.24533 58.8682C3.33793 59.3338 3.56654 59.7614 3.90219 60.097C4.23784 60.4327 4.66552 60.6613 5.13107 60.7539C5.59663 60.8465 6.07913 60.799 6.51767 60.6173C6.95621 60.4357 7.3311 60.1281 7.59482 59.7334C7.85853 59.3387 7.99924 58.8747 7.99924 58.4C7.99924 57.7635 7.74644 57.153 7.29635 56.7029C6.84627 56.2529 6.23573 56 5.59921 56Z" fill="#151528"/>
<path d="M5.59921 5.20001C5.7053 5.20001 5.80703 5.24215 5.88205 5.31717C5.95706 5.39218 5.99924 5.49392 5.99924 5.60001C5.99924 5.70609 5.95706 5.80783 5.88205 5.88284C5.80703 5.95786 5.7053 6 5.59921 6C5.49312 6 5.39139 5.95786 5.31637 5.88284C5.24136 5.80783 5.19919 5.70609 5.19919 5.60001C5.19919 5.49392 5.24136 5.39218 5.31637 5.31717C5.39139 5.24215 5.49312 5.20001 5.59921 5.20001ZM5.59921 3.20001C5.12454 3.20001 4.66052 3.34075 4.26584 3.60446C3.87116 3.86818 3.56358 4.24301 3.38193 4.68155C3.20028 5.12009 3.15272 5.60265 3.24533 6.06821C3.33793 6.53376 3.56654 6.96141 3.90219 7.29706C4.23784 7.6327 4.66552 7.86128 5.13107 7.95389C5.59663 8.04649 6.07913 7.99897 6.51767 7.81732C6.95621 7.63567 7.3311 7.32806 7.59482 6.93338C7.85853 6.5387 7.99924 6.07468 7.99924 5.60001C7.99924 4.96349 7.74644 4.35304 7.29635 3.90295C6.84627 3.45287 6.23573 3.20001 5.59921 3.20001Z" fill="#151528"/>
<path d="M42.4 5.20001C42.5061 5.20001 42.6078 5.24215 42.6828 5.31717C42.7578 5.39218 42.8 5.49392 42.8 5.60001C42.8 5.70609 42.7578 5.80783 42.6828 5.88284C42.6078 5.95786 42.5061 6 42.4 6C42.2939 6 42.1922 5.95786 42.1172 5.88284C42.0421 5.80783 42 5.70609 42 5.60001C42 5.49392 42.0421 5.39218 42.1172 5.31717C42.1922 5.24215 42.2939 5.20001 42.4 5.20001ZM42.4 3.20001C41.9253 3.20001 41.4613 3.34075 41.0666 3.60446C40.6719 3.86818 40.3644 4.24301 40.1827 4.68155C40.0011 5.12009 39.9535 5.60265 40.0461 6.06821C40.1387 6.53376 40.3673 6.96141 40.703 7.29706C41.0386 7.6327 41.4662 7.86128 41.9317 7.95389C42.3973 8.04649 42.8799 7.99897 43.3184 7.81732C43.757 7.63567 44.1318 7.32806 44.3955 6.93338C44.6592 6.5387 44.8 6.07468 44.8 5.60001C44.8 5.28483 44.7379 4.97273 44.6173 4.68155C44.4967 4.39037 44.3199 4.12581 44.097 3.90295C43.8742 3.68009 43.6096 3.5033 43.3184 3.38269C43.0273 3.26208 42.7152 3.20001 42.4 3.20001Z" fill="#151528"/>
<path d="M34.7993 1.99997V3.59998H13.1992V1.99997H34.7993ZM35.1992 -2.93801e-05H12.7993C12.375 -2.93801e-05 11.9679 0.16854 11.6678 0.468599C11.3678 0.768657 11.1992 1.17563 11.1992 1.59998V3.99997C11.1992 4.42432 11.3678 4.83129 11.6678 5.13135C11.9679 5.43141 12.375 5.59998 12.7993 5.59998H35.1992C35.6236 5.59998 36.0306 5.43141 36.3307 5.13135C36.6307 4.83129 36.7993 4.42432 36.7993 3.99997V1.59998C36.8006 1.38949 36.7601 1.18084 36.6802 0.986116C36.6002 0.791395 36.4825 0.614477 36.3336 0.465638C36.1848 0.316799 36.0078 0.198987 35.8131 0.11905C35.6184 0.039113 35.4097 -0.00135741 35.1992 -2.93801e-05Z" fill="#151528"/>
<path d="M34.7993 22V49.2H13.1992V22H34.7993ZM35.1992 20H12.7993C12.375 20 11.9679 20.1685 11.6678 20.4686C11.3678 20.7687 11.1992 21.1756 11.1992 21.5999V49.5999C11.1992 50.0243 11.3678 50.4313 11.6678 50.7314C11.9679 51.0314 12.375 51.2 12.7993 51.2H35.1992C35.4093 51.2 35.6174 51.1586 35.8115 51.0782C36.0056 50.9977 36.1821 50.8799 36.3307 50.7314C36.4793 50.5828 36.5971 50.4064 36.6775 50.2123C36.7579 50.0181 36.7993 49.8101 36.7993 49.5999V21.5999C36.8006 21.3895 36.7601 21.1808 36.6802 20.9861C36.6002 20.7914 36.4825 20.6145 36.3336 20.4657C36.1848 20.3168 36.0078 20.199 35.8131 20.1191C35.6184 20.0391 35.4097 19.9986 35.1992 20Z" fill="#151528"/>
<path d="M46 2V62H2V2H46ZM46.4 0H1.59998C1.17563 0 0.768686 0.16857 0.468628 0.468628C0.16857 0.768686 0 1.17566 0 1.60001V62.44C0 62.8643 0.16857 63.2713 0.468628 63.5714C0.768686 63.8714 1.17563 64.04 1.59998 64.04H46.4C46.8244 64.04 47.2313 63.8714 47.5314 63.5714C47.8314 63.2713 48 62.8643 48 62.44V1.64001C48.0013 1.42953 47.9609 1.22087 47.881 1.02615C47.801 0.831433 47.6831 0.654515 47.5343 0.505676C47.3855 0.356837 47.2086 0.239025 47.0139 0.159088C46.8192 0.0791509 46.6105 0.0386805 46.4 0.0400085V0Z" fill="#151528"/>
</g>
<defs>
<clipPath id="clip0">
<rect width="48" height="64" fill="white"/>
</clipPath>
</defs>
</svg>
