<svg width="48" height="80" viewBox="0 0 48 80" fill="none" xmlns="http://www.w3.org/2000/svg">
<g clip-path="url(#clip0)">
<path d="M26.0009 36.8001H25.2009C25.148 36.7987 25.0954 36.8081 25.0463 36.8277C24.9971 36.8473 24.9525 36.8767 24.915 36.9142C24.8776 36.9516 24.8481 36.9962 24.8285 37.0454C24.8089 37.0945 24.7995 37.1471 24.8009 37.2001V38.0001C24.8009 38.1062 24.8431 38.2079 24.9181 38.2829C24.9931 38.3579 25.0949 38.4001 25.2009 38.4001H26.0009C26.107 38.4001 26.2087 38.3579 26.2837 38.2829C26.3587 38.2079 26.4009 38.1062 26.4009 38.0001V37.2001C26.4023 37.1471 26.3929 37.0945 26.3733 37.0454C26.3537 36.9962 26.3242 36.9516 26.2868 36.9142C26.2493 36.8767 26.2048 36.8473 26.1556 36.8277C26.1065 36.8081 26.0538 36.7987 26.0009 36.8001Z" fill="#151528"/>
<path d="M24.4208 68H23.6207C23.5678 67.9986 23.5152 68.008 23.4661 68.0276C23.4169 68.0472 23.3723 68.0767 23.3348 68.1141C23.2974 68.1515 23.268 68.1962 23.2484 68.2453C23.2288 68.2945 23.2195 68.3471 23.2208 68.4V69.2C23.2208 69.3061 23.2629 69.4078 23.3379 69.4828C23.4129 69.5578 23.5147 69.6 23.6207 69.6H24.4208C24.5269 69.6 24.6286 69.5578 24.7036 69.4828C24.7786 69.4078 24.8208 69.3061 24.8208 69.2V68.4C24.8222 68.3471 24.8127 68.2945 24.7931 68.2453C24.7735 68.1962 24.7441 68.1515 24.7067 68.1141C24.6693 68.0767 24.6246 68.0472 24.5754 68.0276C24.5263 68.008 24.4737 67.9986 24.4208 68Z" fill="#151528"/>
<path d="M22.7997 36.8001H21.9996C21.9467 36.7987 21.8941 36.8081 21.845 36.8277C21.7958 36.8473 21.7512 36.8767 21.7138 36.9142C21.6763 36.9516 21.6469 36.9962 21.6273 37.0454C21.6077 37.0945 21.5984 37.1471 21.5997 37.2001V38.0001C21.5997 38.1062 21.6418 38.2079 21.7168 38.2829C21.7918 38.3579 21.8936 38.4001 21.9996 38.4001H22.7997C22.8522 38.4001 22.9042 38.3897 22.9528 38.3696C23.0013 38.3495 23.0454 38.3201 23.0825 38.2829C23.1197 38.2458 23.1491 38.2016 23.1692 38.1531C23.1893 38.1046 23.1997 38.0526 23.1997 38.0001V37.2001C23.2011 37.1471 23.1916 37.0945 23.172 37.0454C23.1524 36.9962 23.123 36.9516 23.0856 36.9142C23.0482 36.8767 23.0035 36.8473 22.9544 36.8277C22.9052 36.8081 22.8526 36.7987 22.7997 36.8001Z" fill="#151528"/>
<path d="M31.5997 36.8001H28.4197C28.3668 36.7987 28.3142 36.8081 28.265 36.8277C28.2159 36.8473 28.1712 36.8767 28.1338 36.9142C28.0964 36.9516 28.067 36.9962 28.0474 37.0454C28.0278 37.0945 28.0183 37.1471 28.0197 37.2001V38.0001C28.0197 38.1062 28.0618 38.2079 28.1368 38.2829C28.2119 38.3579 28.3136 38.4001 28.4197 38.4001H31.6196C31.7257 38.4001 31.8275 38.3579 31.9025 38.2829C31.9775 38.2079 32.0197 38.1062 32.0197 38.0001V37.2001C32.021 37.1471 32.0117 37.0945 31.9921 37.0454C31.9725 36.9962 31.9431 36.9516 31.9056 36.9142C31.8682 36.8767 31.8236 36.8473 31.7744 36.8277C31.7253 36.8081 31.6725 36.7987 31.6196 36.8001H31.5997Z" fill="#151528"/>
<path d="M19.5997 36.8001H16.4197C16.3668 36.7987 16.3142 36.8081 16.265 36.8277C16.2159 36.8473 16.1712 36.8767 16.1338 36.9142C16.0964 36.9516 16.067 36.9962 16.0474 37.0454C16.0278 37.0945 16.0183 37.1471 16.0197 37.2001V38.0001C16.0197 38.1062 16.0618 38.2079 16.1368 38.2829C16.2119 38.3579 16.3136 38.4001 16.4197 38.4001H19.6196C19.7257 38.4001 19.8275 38.3579 19.9025 38.2829C19.9775 38.2079 20.0197 38.1062 20.0197 38.0001V37.2001C20.021 37.1471 20.0117 37.0945 19.9921 37.0454C19.9725 36.9962 19.9431 36.9516 19.9056 36.9142C19.8682 36.8767 19.8236 36.8473 19.7744 36.8277C19.7253 36.8081 19.6725 36.7987 19.6196 36.8001H19.5997Z" fill="#151528"/>
<path d="M23.9999 66.8C24.3955 66.8 24.7823 66.9174 25.1112 67.1371C25.4401 67.3569 25.6963 67.6692 25.8477 68.0347C25.9991 68.4001 26.0388 68.8023 25.9616 69.1902C25.8844 69.5782 25.694 69.9346 25.4143 70.2143C25.1345 70.494 24.7782 70.6845 24.3902 70.7616C24.0022 70.8388 23.6 70.7992 23.2346 70.6478C22.8691 70.4964 22.5569 70.2401 22.3371 69.9112C22.1173 69.5823 21.9999 69.1956 21.9999 68.8C21.9999 68.2696 22.2107 67.7609 22.5858 67.3858C22.9608 67.0108 23.4695 66.8 23.9999 66.8ZM23.9999 64.8C23.2088 64.8 22.4355 65.0347 21.7777 65.4742C21.1199 65.9137 20.6073 66.5384 20.3045 67.2693C20.0018 68.0002 19.9225 68.8045 20.0769 69.5804C20.2312 70.3563 20.6122 71.0691 21.1716 71.6285C21.731 72.1879 22.4437 72.5688 23.2197 72.7232C23.9956 72.8775 24.7998 72.7983 25.5307 72.4956C26.2616 72.1928 26.8863 71.6801 27.3259 71.0223C27.7654 70.3645 27.9999 69.5912 27.9999 68.8C27.9999 67.7392 27.5786 66.7218 26.8284 65.9716C26.0783 65.2215 25.0608 64.8 23.9999 64.8Z" fill="#151528"/>
<path d="M24.4208 45.6H23.6207C23.5678 45.5986 23.5152 45.608 23.4661 45.6276C23.4169 45.6472 23.3723 45.6767 23.3348 45.7141C23.2974 45.7515 23.268 45.7962 23.2484 45.8453C23.2288 45.8945 23.2195 45.9471 23.2208 46V61.2C23.2208 61.3061 23.2629 61.4078 23.3379 61.4828C23.4129 61.5578 23.5147 61.6 23.6207 61.6H24.4208C24.5269 61.6 24.6286 61.5578 24.7036 61.4828C24.7786 61.4078 24.8208 61.3061 24.8208 61.2V46C24.8222 45.9471 24.8127 45.8945 24.7931 45.8453C24.7735 45.7962 24.7441 45.7515 24.7067 45.7141C24.6693 45.6767 24.6246 45.6472 24.5754 45.6276C24.5263 45.608 24.4737 45.5986 24.4208 45.6Z" fill="#151528"/>
<path d="M31.5997 33.6H16.4197C16.3668 33.5986 16.3142 33.608 16.265 33.6276C16.2159 33.6472 16.1712 33.6767 16.1338 33.7141C16.0964 33.7515 16.067 33.7962 16.0474 33.8453C16.0278 33.8945 16.0183 33.9471 16.0197 34V34.8C16.0197 34.9061 16.0618 35.0078 16.1368 35.0828C16.2119 35.1578 16.3136 35.2 16.4197 35.2H31.6196C31.7257 35.2 31.8275 35.1578 31.9025 35.0828C31.9775 35.0078 32.0197 34.9061 32.0197 34.8V34C32.021 33.9471 32.0117 33.8945 31.9921 33.8453C31.9725 33.7962 31.9431 33.7515 31.9056 33.7141C31.8682 33.6767 31.8236 33.6472 31.7744 33.6276C31.7253 33.608 31.6725 33.5986 31.6196 33.6H31.5997Z" fill="#151528"/>
<path d="M42 19.6V26.8H6V19.6H42ZM42.4 17.6H5.6001C5.17575 17.6 4.76869 17.7685 4.46863 18.0686C4.16857 18.3687 4 18.7756 4 19.2V27.2C4 27.6243 4.16857 28.0313 4.46863 28.3314C4.76869 28.6314 5.17575 28.8 5.6001 28.8H42.42C42.8444 28.8 43.2513 28.6314 43.5514 28.3314C43.8514 28.0313 44.02 27.6243 44.02 27.2V19.2C44.02 18.7756 43.8514 18.3687 43.5514 18.0686C43.2513 17.7685 42.8444 17.6 42.42 17.6H42.4Z" fill="#151528"/>
<path d="M42 6V13.2H6V6H42ZM42.4 4H5.6001C5.17575 4 4.76869 4.16857 4.46863 4.46863C4.16857 4.76869 4 5.17563 4 5.59998V13.6C4 13.8101 4.04142 14.0182 4.12183 14.2123C4.20223 14.4064 4.32005 14.5828 4.46863 14.7314C4.6172 14.8799 4.79367 14.9978 4.98779 15.0782C5.18191 15.1586 5.38998 15.2 5.6001 15.2H42.42C42.6302 15.2 42.8382 15.1586 43.0323 15.0782C43.2265 14.9978 43.4028 14.8799 43.5514 14.7314C43.7 14.5828 43.8178 14.4064 43.8982 14.2123C43.9786 14.0182 44.02 13.8101 44.02 13.6V5.59998C44.02 5.17563 43.8514 4.76869 43.5514 4.46863C43.2513 4.16857 42.8444 4 42.42 4H42.4Z" fill="#151528"/>
<path d="M46 2V78H2V2H46ZM46.4 0H1.6001C1.17575 0 0.768686 0.16857 0.468628 0.468628C0.16857 0.768686 0 1.17563 0 1.59998V78.4C0 78.8243 0.16857 79.2313 0.468628 79.5314C0.768686 79.8314 1.17575 80 1.6001 80H46.42C46.8444 80 47.2513 79.8314 47.5514 79.5314C47.8514 79.2313 48.02 78.8243 48.02 78.4V1.59998C48.02 1.17563 47.8514 0.768686 47.5514 0.468628C47.2513 0.16857 46.8444 0 46.42 0H46.4Z" fill="#151528"/>
</g>
<defs>
<clipPath id="clip0">
<rect width="48" height="80" fill="white"/>
</clipPath>
</defs>
</svg>
