<?xml version="1.0" standalone="no"?>
<!DOCTYPE svg PUBLIC "-//W3C//DTD SVG 20010904//EN"
 "http://www.w3.org/TR/2001/REC-SVG-20010904/DTD/svg10.dtd">
<svg version="1.0" xmlns="http://www.w3.org/2000/svg"
 width="512.000000pt" height="512.000000pt" viewBox="0 0 512.000000 512.000000"
 preserveAspectRatio="xMidYMid meet">

<g transform="translate(0.000000,512.000000) scale(0.100000,-0.100000)"
fill="#000000" stroke="none">
<path d="M185 4935 l-25 -24 0 -1951 0 -1951 25 -24 24 -25 444 0 445 0 93
-377 c73 -295 99 -383 116 -401 l22 -22 1231 0 1231 0 22 23 c17 17 43 105
116 400 l93 377 445 0 444 0 24 25 25 24 0 1951 0 1951 -25 24 -24 25 -2351 0
-2351 0 -24 -25z m375 -215 l0 -80 -120 0 -120 0 0 80 0 80 120 0 120 0 0 -80z
m3840 -1760 l0 -1840 -1840 0 -1840 0 0 1840 0 1840 1840 0 1840 0 0 -1840z
m400 1760 l0 -80 -120 0 -120 0 0 80 0 80 120 0 120 0 0 -80z m-4240 -320 l0
-80 -120 0 -120 0 0 80 0 80 120 0 120 0 0 -80z m4240 0 l0 -80 -120 0 -120 0
0 80 0 80 120 0 120 0 0 -80z m-4240 -320 l0 -80 -120 0 -120 0 0 80 0 80 120
0 120 0 0 -80z m4240 0 l0 -80 -120 0 -120 0 0 80 0 80 120 0 120 0 0 -80z
m-4240 -320 l0 -80 -120 0 -120 0 0 80 0 80 120 0 120 0 0 -80z m4240 0 l0
-80 -120 0 -120 0 0 80 0 80 120 0 120 0 0 -80z m-4240 -320 l0 -80 -120 0
-120 0 0 80 0 80 120 0 120 0 0 -80z m4240 0 l0 -80 -120 0 -120 0 0 80 0 80
120 0 120 0 0 -80z m-4240 -320 l0 -80 -120 0 -120 0 0 80 0 80 120 0 120 0 0
-80z m4240 0 l0 -80 -120 0 -120 0 0 80 0 80 120 0 120 0 0 -80z m-4240 -320
l0 -80 -120 0 -120 0 0 80 0 80 120 0 120 0 0 -80z m4240 0 l0 -80 -120 0
-120 0 0 80 0 80 120 0 120 0 0 -80z m-4240 -320 l0 -80 -120 0 -120 0 0 80 0
80 120 0 120 0 0 -80z m4240 0 l0 -80 -120 0 -120 0 0 80 0 80 120 0 120 0 0
-80z m-4240 -320 l0 -80 -120 0 -120 0 0 80 0 80 120 0 120 0 0 -80z m4240 0
l0 -80 -120 0 -120 0 0 80 0 80 120 0 120 0 0 -80z m-4240 -320 l0 -80 -120 0
-120 0 0 80 0 80 120 0 120 0 0 -80z m4240 0 l0 -80 -120 0 -120 0 0 80 0 80
120 0 120 0 0 -80z m-4240 -320 l0 -80 -120 0 -120 0 0 80 0 80 120 0 120 0 0
-80z m4240 0 l0 -80 -120 0 -120 0 0 80 0 80 120 0 120 0 0 -80z m-4240 -320
l0 -80 -120 0 -120 0 0 80 0 80 120 0 120 0 0 -80z m4240 0 l0 -80 -120 0
-120 0 0 80 0 80 120 0 120 0 0 -80z m-3329 -457 c40 -163 60 -224 76 -240 21
-22 28 -23 218 -23 182 0 196 -1 191 -17 -2 -10 -7 -38 -11 -63 -13 -88 14
-80 -269 -80 l-254 0 -80 320 -80 320 78 0 78 0 53 -217z m2027 57 l-40 -160
-163 0 -163 0 -7 56 c-5 40 -14 64 -30 80 l-24 24 -511 0 -511 0 -24 -24 c-16
-16 -25 -40 -30 -80 l-7 -56 -163 0 -163 0 -40 160 -40 160 978 0 978 0 -40
-160z m280 -160 l-80 -320 -254 0 c-283 0 -256 -8 -269 80 -4 25 -9 53 -11 63
-5 16 9 17 191 17 190 0 197 1 218 23 16 16 36 77 76 240 l53 217 78 0 78 0
-80 -320z m-803 -22 c9 -42 45 -265 45 -282 0 -15 -40 -16 -460 -16 -420 0
-460 1 -460 16 0 17 36 240 45 282 l5 22 410 0 410 0 5 -22z"/>
<path d="M1040 4627 c-19 -6 -58 -34 -85 -62 -71 -70 -91 -145 -63 -239 16
-55 99 -138 154 -154 94 -28 169 -8 239 63 102 101 102 229 0 330 -70 71 -152
91 -245 62z m135 -172 c50 -49 15 -135 -55 -135 -41 0 -80 39 -80 80 0 41 39
80 80 80 19 0 40 -9 55 -25z"/>
<path d="M2410 4633 c-596 -62 -1092 -402 -1355 -931 -375 -752 -127 -1673
575 -2139 437 -290 978 -360 1473 -192 457 155 828 507 1015 965 83 203 116
382 116 624 0 242 -33 421 -116 624 -240 585 -756 976 -1383 1046 -85 9 -249
11 -325 3z m460 -186 c276 -58 522 -187 726 -380 246 -233 394 -504 461 -842
24 -125 24 -405 0 -530 -67 -338 -215 -609 -461 -842 -212 -201 -476 -334
-771 -389 -135 -25 -402 -26 -530 -1 -328 64 -603 212 -826 443 -215 223 -344
476 -406 789 -25 128 -24 395 1 530 117 629 606 1119 1226 1229 131 24 145 24
310 21 114 -3 185 -11 270 -28z"/>
<path d="M2386 4309 c-139 -18 -303 -68 -428 -130 -60 -30 -78 -52 -78 -91 1
-31 16 -49 86 -101 90 -66 189 -172 255 -271 32 -49 59 -93 59 -98 0 -4 -34
21 -76 56 -88 73 -200 143 -301 185 -104 45 -243 83 -275 76 -51 -12 -209
-216 -286 -370 -41 -83 -82 -200 -82 -236 0 -16 9 -38 21 -50 20 -20 27 -21
108 -13 130 13 306 9 391 -9 132 -28 134 -32 16 -45 -188 -21 -341 -70 -499
-160 -42 -24 -82 -53 -89 -65 -24 -45 12 -309 62 -457 36 -105 96 -227 118
-239 27 -15 63 -13 84 3 9 7 38 40 63 74 66 90 168 186 269 253 49 32 93 59
98 59 4 0 -21 -34 -56 -76 -72 -87 -147 -207 -187 -303 -43 -102 -80 -242 -74
-273 12 -51 216 -209 370 -286 83 -41 200 -82 236 -82 16 0 38 9 50 21 20 20
21 27 13 108 -13 130 -9 306 9 391 28 132 32 134 45 16 21 -188 70 -341 160
-499 24 -42 53 -82 65 -89 27 -14 183 -3 302 22 163 34 373 119 395 159 14 26
12 62 -4 83 -7 9 -39 37 -72 61 -90 66 -189 172 -255 271 -32 49 -59 93 -59
98 0 4 34 -21 76 -56 88 -73 200 -143 301 -185 106 -46 243 -83 276 -75 35 7
160 154 230 271 86 143 146 304 133 356 -11 46 -36 52 -174 37 -143 -15 -248
-9 -377 22 l-90 22 110 13 c61 8 153 25 205 38 115 30 353 145 377 181 13 21
15 41 9 122 -12 173 -52 329 -126 489 -38 82 -59 103 -102 103 -31 -1 -49 -16
-101 -86 -68 -91 -173 -190 -271 -255 -49 -32 -93 -59 -98 -59 -4 0 19 33 53
73 72 85 147 207 189 304 44 104 82 243 75 275 -12 51 -216 209 -370 286 -83
41 -200 82 -236 82 -16 0 -38 -9 -50 -21 -20 -20 -21 -27 -13 -108 16 -153 9
-315 -17 -421 l-23 -95 -13 105 c-16 137 -37 225 -80 335 -42 107 -118 241
-143 255 -22 12 -107 11 -204 -1z m163 -233 c79 -165 119 -363 107 -535 -4
-52 -8 -97 -10 -100 -2 -3 -32 -4 -66 -1 l-62 5 -23 72 c-53 168 -153 329
-293 475 l-84 87 79 24 c43 14 112 30 153 37 41 6 82 13 90 15 63 12 68 9 109
-79z m581 -62 c48 -26 122 -73 164 -106 69 -53 75 -62 70 -86 -15 -61 -75
-198 -120 -274 -49 -81 -171 -220 -246 -280 l-40 -31 -45 45 -45 46 25 43 c41
70 96 223 119 328 14 66 21 137 22 228 0 73 3 133 5 133 2 0 43 -21 91 -46z
m-1329 -285 c157 -60 345 -198 451 -331 l31 -40 -45 -45 -46 -45 -43 25 c-70
41 -223 96 -328 119 -66 14 -137 21 -228 22 -73 0 -133 3 -133 5 0 18 105 195
152 255 67 87 57 85 189 35z m1903 -411 c27 -90 42 -162 52 -250 l6 -56 -85
-41 c-167 -80 -364 -119 -537 -107 -52 4 -97 10 -101 14 -3 4 -3 33 0 65 l6
58 75 25 c175 58 355 171 490 308 35 36 66 66 67 66 1 0 13 -37 27 -82z
m-1009 -69 c63 -30 123 -90 155 -154 20 -41 25 -65 25 -135 -1 -77 -4 -91 -34
-148 -38 -70 -70 -101 -145 -140 -43 -22 -64 -26 -136 -26 -70 -1 -94 4 -135
24 -260 128 -238 495 35 594 63 23 170 16 235 -15z m-617 -203 c4 -2 5 -32 2
-66 l-5 -62 -72 -23 c-168 -53 -329 -153 -475 -293 l-87 -84 -25 84 c-27 90
-42 161 -52 250 l-6 56 83 41 c95 45 231 87 329 101 62 8 292 6 308 -4z m131
-410 l43 -44 -25 -43 c-41 -70 -96 -223 -119 -328 -14 -66 -21 -137 -22 -228
0 -73 -3 -133 -4 -133 -18 0 -181 96 -246 145 -94 71 -93 70 -45 195 53 139
124 245 245 368 62 61 116 112 121 112 5 0 28 -20 52 -44z m801 -28 c167 -82
334 -121 522 -122 71 -1 128 -3 128 -4 0 -18 -96 -181 -145 -246 -55 -72 -65
-81 -90 -78 -47 5 -190 66 -277 118 -81 49 -220 171 -279 246 l-32 39 44 45
c24 24 46 43 49 42 3 -2 39 -20 80 -40z m-385 -205 c53 -168 153 -329 293
-475 l84 -87 -84 -25 c-90 -27 -161 -42 -250 -52 l-56 -6 -41 83 c-79 166
-119 364 -107 538 4 52 8 97 10 100 2 3 32 4 66 1 l62 -5 23 -72z"/>
<path d="M3920 4627 c-49 -16 -133 -102 -148 -153 -28 -94 -8 -169 63 -239 51
-52 102 -75 165 -75 124 0 240 116 240 240 0 63 -23 114 -75 165 -70 71 -152
91 -245 62z m135 -172 c16 -15 25 -36 25 -55 0 -19 -9 -40 -25 -55 -15 -16
-36 -25 -55 -25 -19 0 -40 9 -55 25 -16 15 -25 36 -25 55 0 19 9 40 25 55 15
16 36 25 55 25 19 0 40 -9 55 -25z"/>
<path d="M1040 1747 c-49 -16 -133 -102 -148 -153 -28 -94 -8 -169 63 -239
101 -102 229 -102 330 0 98 97 101 222 8 325 -65 72 -158 97 -253 67z m135
-172 c16 -15 25 -36 25 -55 0 -19 -9 -40 -25 -55 -15 -16 -36 -25 -55 -25 -19
0 -40 9 -55 25 -16 15 -25 36 -25 55 0 19 9 40 25 55 15 16 36 25 55 25 19 0
40 -9 55 -25z"/>
<path d="M3920 1747 c-49 -16 -133 -102 -148 -153 -28 -94 -8 -169 63 -239
101 -102 229 -102 330 0 98 97 101 222 8 325 -65 72 -158 97 -253 67z m135
-172 c50 -49 15 -135 -55 -135 -41 0 -80 39 -80 80 0 41 39 80 80 80 19 0 40
-9 55 -25z"/>
</g>
</svg>
