<svg xmlns="http://www.w3.org/2000/svg" viewBox="0 0 64 64" id="cpu-case"><g data-name="CPU Case"><path fill="#231f20" d="M46,2H18a5.006,5.006,0,0,0-5,5V55a3,3,0,0,0,2,2.816V61a1,1,0,0,0,1,1H48a1,1,0,0,0,1-1V57.816A3,3,0,0,0,51,55V7A5.006,5.006,0,0,0,46,2Zm1,58H17V58H47Zm2-5a1,1,0,0,1-1,1H16a1,1,0,0,1-1-1V7a3,3,0,0,1,3-3H46a3,3,0,0,1,3,3Z"></path><path fill="#231f20" d="M46 11H18a1 1 0 0 0-1 1v6a1 1 0 0 0 1 1H46a1 1 0 0 0 1-1V12A1 1 0 0 0 46 11zm-1 6H19V13H45zM46 21H18a1 1 0 0 0-1 1v6a1 1 0 0 0 1 1H46a1 1 0 0 0 1-1V22A1 1 0 0 0 46 21zm-1 6H19V23H45zM46 31H18a1 1 0 0 0-1 1v6a1 1 0 0 0 1 1H46a1 1 0 0 0 1-1V32A1 1 0 0 0 46 31zm-1 6H19V33H45zM21 8h4V9h2V7a1 1 0 0 0-1-1H20a1 1 0 0 0-1 1V9h2zM38 8h4V9h2V7a1 1 0 0 0-1-1H37a1 1 0 0 0-1 1V9h2zM32 41a6 6 0 1 0 6 6A6.006 6.006 0 0 0 32 41zm0 10a4 4 0 1 1 4-4A4 4 0 0 1 32 51z"></path></g></svg>