<svg xmlns="http://www.w3.org/2000/svg" width="2666.563" height="2666.563" fill-rule="evenodd" clip-rule="evenodd" image-rendering="optimizeQuality" shape-rendering="geometricPrecision" text-rendering="geometricPrecision" viewBox="0 0 27777 27777" id="cpu"><path d="M5347 3791l3000 0 0 -1840c0,-460 373,-833 833,-833 460,0 833,373 833,833l0 1840 1473 0 0 -1840c0,-460 373,-833 833,-833 460,0 833,373 833,833l0 1840 1472 0 0 -1840c0,-460 374,-833 834,-833 460,0 833,373 833,833l0 1840 1472 0 0 -1840c0,-460 373,-833 834,-833 460,0 833,373 833,833l0 1840 3000 0c879,0 1597,718 1597,1597l0 2959 1799 0c459,0 832,370 832,833l1 0c0,460 -373,833 -833,833l-1799 0 0 1473 1799 0c460,0 833,373 833,833 0,460 -373,833 -833,833l-1799 0 0 1472 1799 0c459,0 832,371 832,834l1 0c0,460 -373,833 -833,833l-1799 0 0 1472 1799 0c460,0 833,373 833,834 0,460 -373,833 -833,833l-1799 0 0 2958c0,879 -718,1598 -1597,1598l-3000 0 0 1840c0,460 -373,833 -833,833 -461,0 -834,-373 -834,-833l0 -1840 -1472 0 0 1840c0,460 -373,833 -833,833 -460,0 -834,-373 -834,-833l0 -1840 -1472 0 0 1840c0,460 -373,833 -833,833 -460,0 -833,-373 -833,-833l0 -1840 -1473 0 0 1840c0,460 -373,833 -833,833 -460,0 -833,-373 -833,-833l0 -1840 -3000 0c-879,0 -1598,-719 -1598,-1598l0 -2958 -1798 0c-460,0 -833,-373 -833,-833l1 0c0,-463 372,-834 832,-834l1798 0 0 -1472 -1798 0c-460,0 -833,-373 -833,-833 0,-460 373,-834 833,-834l1798 0 0 -1472 -1798 0c-460,0 -833,-373 -833,-833l1 0c0,-463 372,-833 832,-833l1798 0 0 -1473 -1798 0c-460,0 -833,-373 -833,-833 0,-460 373,-833 833,-833l1798 0 0 -2959c0,-879 719,-1597 1598,-1597zm3694 0l278 0 0 -1840c0,-124 -150,-185 -237,-98 -25,25 -41,59 -41,98l0 1840zm3139 0l278 0 0 -1840c0,-124 -150,-185 -237,-98 -25,25 -41,59 -41,98l0 1840zm3139 0l278 0 0 -1840c0,-124 -150,-185 -237,-98 -26,25 -41,59 -41,98l0 1840zm3139 0l278 0 0 -1840c0,-124 -150,-185 -238,-98 -25,25 -40,59 -40,98l0 1840zm5569 5250l0 278 1799 0c77,0 139,-62 139,-139l1 0c0,-74 -63,-139 -140,-139l-1799 0zm0 3139l0 278 1799 0c123,0 185,-150 98,-237 -25,-25 -60,-41 -98,-41l-1799 0zm0 3139l0 278 1799 0c77,0 139,-62 139,-139l1 0c0,-74 -63,-139 -140,-139l-1799 0zm0 3139l0 278 1799 0c123,0 185,-150 98,-238 -25,-25 -60,-40 -98,-40l-1799 0zm-5291 5528l-278 0 0 1840c0,123 150,185 237,98 25,-25 41,-60 41,-98l0 -1840zm-3139 0l-278 0 0 1840c0,123 150,185 237,98 25,-25 41,-60 41,-98l0 -1840zm-3139 0l-278 0 0 1840c0,123 150,185 237,98 25,-25 41,-60 41,-98l0 -1840zm-3139 0l-278 0 0 1840c0,123 150,185 237,98 25,-25 41,-60 41,-98l0 -1840zm-5570 -5250l0 -278 -1798 0c-78,0 -140,64 -140,139l1 0c0,76 62,139 139,139l1798 0zm0 -3139l0 -278 -1798 0c-124,0 -185,150 -98,237 25,25 59,41 98,41l1798 0zm0 -3139l0 -278 -1798 0c-78,0 -140,65 -140,139l1 0c0,77 62,139 139,139l1798 0zm0 -3139l0 -278 -1798 0c-124,0 -185,150 -98,237 25,25 59,41 98,41l1798 0zm12524 2890l0 3359c0,460 374,833 834,833l2239 0c461,0 834,-373 834,-833l0 -3359c0,-461 -373,-834 -834,-834 -460,0 -833,373 -833,834l0 2526 -573 0 0 -2526c0,-461 -373,-834 -833,-834 -460,0 -834,373 -834,834zm736 -99c-26,26 -41,60 -41,99l0 3359c0,77 62,139 139,139l2239 0c77,0 139,-62 139,-139l0 -3359c0,-124 -150,-186 -237,-99 -25,26 -40,60 -40,99l0 2873c0,192 -156,347 -348,347l-1267 0c-192,0 -347,-155 -347,-347l0 -2873c0,-124 -150,-186 -237,-99zm-6227 2625l-1518 0 0 -1693 1518 0c460,0 833,-373 833,-833 0,-461 -373,-834 -833,-834l-2352 0c-460,0 -833,373 -833,834l0 3359c0,460 373,833 833,833l2352 0c460,0 833,-373 833,-833 0,-460 -373,-833 -833,-833zm98 735c-25,-25 -60,-41 -98,-41l-1866 0c-191,0 -347,-155 -347,-347l0 -2387c0,-192 156,-347 347,-347l1866 0c123,0 185,-150 98,-238 -25,-25 -60,-40 -98,-40l-2352 0c-77,0 -139,62 -139,139l0 3359c0,77 62,139 139,139l2352 0c123,0 185,-150 98,-237zm2736 98l0 -846c469,0 938,0 1406,0 461,0 834,-373 834,-834l0 -1679c0,-461 -373,-834 -834,-834l-2239 0c-460,0 -833,373 -833,834l0 3359c0,460 373,833 833,833 460,0 833,-373 833,-833zm-735 98c25,-25 41,-60 41,-98l0 -1194c0,-191 155,-347 347,-347l1753 0c77,0 139,-62 139,-139l0 -1679c0,-77 -62,-139 -139,-139l-2239 0c-77,0 -139,62 -139,139l0 3359c0,124 150,185 237,98zm-5928 -10042c-750,0 -1362,613 -1362,1363l0 13803c0,750 612,1362 1362,1362l13871 0c750,0 1362,-612 1362,-1362l0 -13803c0,-750 -612,-1363 -1362,-1363l-13871 0zm13871 695l-13871 0c-367,0 -668,301 -668,668l0 13803c0,367 301,668 668,668l13871 0c366,0 668,-301 668,-668l0 -13803c0,-367 -302,-668 -668,-668zm1606 -1833l-17083 0c-496,0 -903,407 -903,902l0 17000c0,496 407,903 903,903l17083 0c496,0 903,-407 903,-903l0 -17000c0,-495 -407,-902 -903,-902z"></path></svg>