<svg xmlns="http://www.w3.org/2000/svg" width="512" height="512" enable-background="new 0 0 512 512" viewBox="0 0 512 512" id="gpu-card"><path fill="#808285" d="M454.495,161.066H67.515v190.49h386.98c12.979,0,23.5-10.521,23.5-23.5v-143.49
			C477.995,171.588,467.474,161.066,454.495,161.066z"></path><path d="M454.495,356.557H67.515c-2.761,0-5-2.238-5-5v-190.49c0-2.761,2.239-5,5-5h386.98c15.715,0,28.5,12.785,28.5,28.5v143.49
			C482.995,343.771,470.21,356.557,454.495,356.557z M72.515,346.557h381.98c10.201,0,18.5-8.299,18.5-18.5v-143.49
			c0-10.201-8.299-18.5-18.5-18.5H72.515V346.557z"></path><path d="M477.995,184.255v143.489c0,12.98-10.53,23.5-23.5,23.5h-31.26c12.979,0,23.5-10.52,23.5-23.5V184.255
			c0-12.98-10.521-23.5-23.5-23.5h31.26C467.465,160.755,477.995,171.274,477.995,184.255z" opacity=".2"></path><path fill="none" stroke="#000" stroke-linejoin="round" stroke-miterlimit="10" stroke-width="10" d="M355.84 256.313"></path><path fill="#D1D3D4" d="M228.22,212.769c-1.08-1.27-2.22-2.49-3.399-3.67c-10.9-10.899-25.57-18.03-41.9-19.25
			c-1.65-0.12-3.32-0.18-5-0.18c-16.52,0-31.62,6.04-43.229,16.03c-1.271,1.079-2.49,2.22-3.67,3.399
			c-10.91,10.9-18.03,25.57-19.25,41.9c-0.12,1.649-0.181,3.319-0.181,5c0,16.521,6.03,31.62,16.03,43.231
			c1.08,1.27,2.22,2.488,3.4,3.67c10.899,10.898,25.569,18.029,41.899,19.25c1.65,0.119,3.32,0.18,5,0.18
			c16.52,0,31.62-6.041,43.23-16.031c1.27-1.08,2.489-2.219,3.67-3.398c10.899-10.9,18.029-25.57,19.25-41.9
			c0.119-1.65,0.18-3.32,0.18-5.001C244.25,239.479,238.21,224.379,228.22,212.769z"></path><path d="M177.92,327.33c-1.786,0-3.589-0.064-5.36-0.192c-16.991-1.271-32.994-8.622-45.075-20.701
			c-1.357-1.358-2.558-2.655-3.673-3.966c-11.099-12.888-17.222-29.399-17.222-46.472c0-1.792,0.065-3.597,0.194-5.363
			c1.27-17,8.622-33.005,20.703-45.074c1.351-1.352,2.649-2.554,3.966-3.673c12.896-11.098,29.407-17.22,46.467-17.22
			c1.796,0,3.6,0.064,5.363,0.193c16.988,1.269,32.992,8.62,45.073,20.701c1.348,1.349,2.55,2.646,3.673,3.966
			c11.099,12.898,17.221,29.409,17.221,46.47c0,1.786-0.065,3.59-0.193,5.361c-1.27,16.991-8.622,32.995-20.701,45.075
			c-1.349,1.349-2.646,2.549-3.966,3.672C211.49,321.207,194.979,327.33,177.92,327.33z M177.92,194.669
			c-14.668,0-28.862,5.263-39.968,14.82c-1.132,0.962-2.235,1.983-3.395,3.145c-10.389,10.379-16.709,24.136-17.8,38.737
			c-0.111,1.518-0.167,3.077-0.167,4.628c0,14.678,5.263,28.873,14.819,39.969c0.96,1.129,1.984,2.232,3.149,3.398
			c10.387,10.386,24.144,16.707,38.735,17.798c1.52,0.11,3.081,0.166,4.627,0.166c14.667,0,28.862-5.264,39.969-14.821
			c1.136-0.967,2.24-1.989,3.397-3.146c10.386-10.387,16.708-24.144,17.798-38.736c0.11-1.52,0.166-3.081,0.166-4.628
			c0-14.668-5.263-28.862-14.82-39.969c-0.966-1.136-1.988-2.239-3.145-3.396c-10.389-10.389-24.146-16.71-38.737-17.8
			C181.035,194.725,179.475,194.669,177.92,194.669z"></path><path fill="#808285" d="M186.46,264.539c-1.26,1.27-2.8,2.25-4.53,2.861c-1.25,0.439-2.6,0.68-4.01,0.68
			c-1.87,0-3.64-0.42-5.22-1.18c-1.24-0.602-2.36-1.391-3.32-2.361c-1.27-1.26-2.25-2.799-2.859-4.529
			c-0.44-1.25-0.681-2.6-0.681-4.011c0-1.87,0.42-3.641,1.181-5.221c0.6-1.239,1.39-2.359,2.359-3.319
			c1.261-1.271,2.8-2.25,4.53-2.86c1.25-0.439,2.6-0.68,4.01-0.68c1.87,0,3.64,0.42,5.22,1.18c1.24,0.601,2.36,1.391,3.32,2.36
			c1.27,1.26,2.25,2.8,2.86,4.53c0.439,1.25,0.68,2.6,0.68,4.01c0,1.87-0.42,3.64-1.18,5.22
			C188.22,262.459,187.43,263.58,186.46,264.539z"></path><path d="M177.92,273.08c-2.592,0-5.077-0.563-7.386-1.674c-1.783-0.864-3.362-1.989-4.709-3.352
			c-1.796-1.782-3.16-3.941-4.021-6.384c-0.64-1.816-0.964-3.725-0.964-5.672c0-2.594,0.564-5.08,1.676-7.39
			c0.858-1.773,1.982-3.354,3.347-4.704c1.784-1.798,3.943-3.161,6.386-4.022c1.819-0.64,3.727-0.964,5.672-0.964
			c2.593,0,5.078,0.563,7.388,1.675c1.775,0.858,3.355,1.983,4.706,3.348c1.797,1.783,3.161,3.942,4.022,6.385
			c0.641,1.821,0.964,3.729,0.964,5.673c0,2.592-0.563,5.077-1.673,7.387c-0.862,1.78-1.988,3.36-3.351,4.708
			c-1.779,1.794-3.938,3.158-6.38,4.021C181.771,272.756,179.864,273.08,177.92,273.08z M177.92,248.919
			c-0.812,0-1.602,0.133-2.35,0.396c-1.008,0.354-1.897,0.916-2.642,1.666c-0.585,0.58-1.048,1.233-1.407,1.975
			c-0.451,0.937-0.682,1.963-0.682,3.043c0,0.812,0.133,1.603,0.396,2.35c0.355,1.009,0.916,1.897,1.666,2.642
			c0.581,0.586,1.235,1.05,1.98,1.411c1.631,0.785,3.643,0.895,5.389,0.282c1.005-0.355,1.896-0.917,2.639-1.666
			c0.587-0.581,1.05-1.235,1.41-1.978c0.449-0.935,0.68-1.962,0.68-3.041c0-0.812-0.133-1.603-0.396-2.352
			c-0.355-1.006-0.916-1.896-1.666-2.641c-0.58-0.585-1.234-1.049-1.976-1.407C180.026,249.149,178.999,248.919,177.92,248.919z"></path><path d="M177.92 322.33h-10v-.18c.033-12.019 2.908-18.378 5.445-23.988 2.444-5.405 4.555-10.073 4.555-20.053 0-3.642-.29-6.813-.887-9.695l9.793-2.027c.736 3.558 1.094 7.392 1.094 11.723 0 12.135-2.892 18.53-5.443 24.173-2.431 5.376-4.53 10.019-4.557 19.882V322.33zM169.014 245.612c-.736-3.559-1.094-7.393-1.094-11.724 0-12.135 2.892-18.53 5.443-24.173 2.431-5.375 4.53-10.018 4.557-19.881v-.166h10v.18c-.033 12.018-2.908 18.377-5.445 23.987-2.444 5.405-4.555 10.074-4.555 20.053 0 3.642.29 6.813.887 9.697L169.014 245.612z"></path><path d="M130.981 302.939l-7.001-7.141.14-.139c8.482-8.439 15.013-10.903 20.775-13.076 5.549-2.093 10.341-3.9 17.39-10.949 2.583-2.584 4.624-5.032 6.24-7.485l8.351 5.502c-1.993 3.024-4.453 5.986-7.519 9.054-8.574 8.573-15.14 11.05-20.932 13.235-5.521 2.082-10.288 3.881-17.278 10.835L130.981 302.939zM187.315 247.85l-8.351-5.501c1.994-3.028 4.454-5.99 7.52-9.056 8.575-8.58 15.143-11.056 20.938-13.24 5.519-2.081 10.285-3.878 17.272-10.828l.148-.148 7.037 7.105-.124.123c-8.516 8.472-15.045 10.934-20.807 13.105-5.549 2.092-10.342 3.898-17.393 10.953C190.974 242.945 188.933 245.395 187.315 247.85z"></path><path d="M155.811 266c-12.135 0-18.531-2.893-24.173-5.443-5.375-2.432-10.018-4.531-19.88-4.558h-.167v-10h.181c12.018.032 18.376 2.908 23.987 5.445 5.406 2.444 10.074 4.556 20.053 4.556 3.637 0 6.81-.29 9.699-.887l2.022 9.793C163.969 265.643 160.135 266 155.811 266zM244.25 266h-.18c-12.018-.033-18.377-2.909-23.988-5.445-5.405-2.444-10.073-4.556-20.052-4.556-3.643 0-6.814.29-9.697.887l-2.026-9.793c3.557-.736 7.392-1.094 11.723-1.094 12.135 0 18.53 2.892 24.172 5.443 5.376 2.431 10.019 4.53 19.881 4.558h.166V266z"></path><path d="M164.271 254.954c-3.026-1.992-5.989-4.452-9.057-7.52-8.573-8.574-11.05-15.14-13.235-20.933-2.082-5.52-3.88-10.287-10.833-17.276l-.097-.097 7.002-7.14.192.191c8.457 8.5 10.919 15.03 13.093 20.792 2.093 5.55 3.901 10.342 10.95 17.391 2.583 2.583 5.031 4.624 7.484 6.239L164.271 254.954zM217.72 309.94l3.57-3.501-3.605 3.465-.104-.104c-8.44-8.478-10.904-15.01-13.078-20.773-2.093-5.55-3.901-10.344-10.949-17.392-2.581-2.581-5.029-4.622-7.485-6.241l5.502-8.35c3.028 1.995 5.99 4.455 9.055 7.521 8.572 8.572 11.049 15.14 13.234 20.934 2.082 5.521 3.88 10.288 10.834 17.273l.166.167L217.72 309.94z"></path><path fill="#D1D3D4" d="M417.89,212.77c-1.08-1.271-2.22-2.49-3.399-3.67c-10.9-10.9-25.57-18.03-41.9-19.25
			c-1.65-0.12-3.32-0.181-5-0.181c-16.52,0-31.62,6.04-43.23,16.03c-1.27,1.08-2.49,2.22-3.67,3.4
			c-10.91,10.899-18.029,25.569-19.25,41.899c-0.119,1.65-0.18,3.32-0.18,5.001c0,16.52,6.03,31.621,16.03,43.23
			c1.079,1.27,2.22,2.49,3.399,3.67c10.9,10.9,25.57,18.029,41.9,19.25c1.65,0.119,3.32,0.18,5,0.18
			c16.52,0,31.62-6.039,43.23-16.029c1.27-1.08,2.489-2.221,3.67-3.4c10.899-10.9,18.029-25.57,19.25-41.9
			c0.119-1.65,0.18-3.32,0.18-5C433.92,239.479,427.88,224.379,417.89,212.77z"></path><path d="M367.59,327.33c-1.786,0-3.589-0.064-5.36-0.192c-16.992-1.271-32.996-8.622-45.075-20.702
			c-1.353-1.352-2.555-2.649-3.674-3.967C302.383,289.586,296.26,273.074,296.26,256c0-1.787,0.064-3.59,0.192-5.361
			c1.271-17.004,8.624-33.008,20.703-45.076c1.346-1.347,2.644-2.548,3.965-3.672c12.898-11.099,29.409-17.222,46.47-17.222
			c1.796,0,3.6,0.065,5.363,0.193c16.987,1.27,32.991,8.621,45.072,20.701c1.349,1.349,2.55,2.646,3.673,3.967
			c11.099,12.897,17.222,29.409,17.222,46.47c0,1.786-0.064,3.589-0.192,5.36c-1.271,16.991-8.622,32.995-20.701,45.075
			c-1.358,1.357-2.655,2.558-3.966,3.674C401.162,321.208,384.65,327.33,367.59,327.33z M367.59,194.669
			c-14.668,0-28.862,5.264-39.97,14.82c-1.136,0.967-2.239,1.989-3.395,3.145c-10.388,10.379-16.708,24.135-17.8,38.738
			c-0.11,1.52-0.166,3.08-0.166,4.628c0,14.68,5.263,28.873,14.818,39.968c0.965,1.135,1.987,2.237,3.146,3.397
			c10.388,10.387,24.145,16.708,38.738,17.799c1.52,0.11,3.08,0.166,4.627,0.166c14.668,0,28.863-5.263,39.97-14.819
			c1.127-0.959,2.23-1.982,3.396-3.147c10.386-10.387,16.707-24.144,17.798-38.736c0.11-1.52,0.166-3.08,0.166-4.627
			c0-14.668-5.264-28.863-14.82-39.97c-0.966-1.136-1.988-2.239-3.145-3.396c-10.389-10.388-24.146-16.709-38.737-17.799
			C370.704,194.726,369.145,194.669,367.59,194.669z"></path><path d="M433.874 255.999c0 1.68-.06 3.35-.18 5-1.22 16.33-8.35 31-19.25 41.9-1.18 1.18-2.4 2.319-3.67 3.399-11.61 9.99-26.71 16.03-43.23 16.03-1.68 0-3.35-.06-5-.18-1.88-.141-3.75-.36-5.579-.66 12.38-1.97 23.609-7.37 32.699-15.19 1.271-1.08 2.49-2.22 3.67-3.399 10.9-10.9 18.03-25.57 19.25-41.9.12-1.65.181-3.32.181-5 0-16.52-6.04-31.62-16.03-43.229-1.08-1.271-2.22-2.49-3.4-3.671-9.64-9.64-22.239-16.34-36.33-18.59 3.431-.56 6.95-.84 10.54-.84 1.681 0 3.351.061 5 .18 16.33 1.221 31 8.351 41.9 19.25 1.18 1.181 2.32 2.4 3.4 3.671C427.834 224.379 433.874 239.479 433.874 255.999zM244.205 255.999c0 1.68-.06 3.35-.18 5-1.22 16.33-8.35 31-19.25 41.9-1.18 1.18-2.4 2.319-3.67 3.399-11.61 9.99-26.71 16.03-43.23 16.03-1.68 0-3.35-.06-5-.18-1.88-.141-3.75-.36-5.579-.66 12.38-1.97 23.609-7.37 32.699-15.19 1.271-1.08 2.49-2.22 3.67-3.399 10.9-10.9 18.03-25.57 19.25-41.9.12-1.65.181-3.32.181-5 0-16.52-6.04-31.62-16.03-43.229-1.08-1.271-2.22-2.49-3.4-3.671-9.64-9.64-22.239-16.34-36.33-18.59 3.431-.56 6.95-.84 10.54-.84 1.681 0 3.351.061 5 .18 16.33 1.221 31 8.351 41.9 19.25 1.18 1.181 2.32 2.4 3.4 3.671C238.165 224.379 244.205 239.479 244.205 255.999z" opacity=".2"></path><path fill="#808285" d="M376.13,264.541c-1.26,1.27-2.8,2.25-4.53,2.859c-1.25,0.439-2.6,0.68-4.01,0.68
			c-1.87,0-3.641-0.42-5.221-1.18c-1.239-0.6-2.359-1.391-3.319-2.359c-1.271-1.26-2.25-2.801-2.86-4.531
			c-0.439-1.25-0.68-2.6-0.68-4.01c0-1.871,0.42-3.641,1.18-5.221c0.601-1.24,1.391-2.36,2.36-3.32c1.261-1.27,2.8-2.25,4.53-2.859
			c1.25-0.44,2.6-0.681,4.01-0.681c1.87,0,3.64,0.42,5.22,1.181c1.24,0.6,2.36,1.39,3.32,2.359c1.27,1.261,2.25,2.8,2.86,4.53
			c0.439,1.25,0.68,2.601,0.68,4.011c0,1.871-0.42,3.641-1.18,5.221C377.89,262.461,377.1,263.58,376.13,264.541z"></path><path d="M367.59,273.08c-2.593,0-5.078-0.563-7.388-1.674c-1.773-0.857-3.353-1.981-4.704-3.346
			c-1.797-1.781-3.161-3.941-4.023-6.388c-0.641-1.821-0.965-3.729-0.965-5.673c0-2.593,0.563-5.078,1.674-7.388
			c0.861-1.778,1.985-3.357,3.349-4.706c1.784-1.798,3.943-3.162,6.386-4.022c1.819-0.641,3.727-0.965,5.672-0.965
			c2.593,0,5.078,0.563,7.388,1.675c1.775,0.859,3.355,1.984,4.706,3.348c1.797,1.784,3.16,3.942,4.021,6.385
			c0.641,1.822,0.965,3.729,0.965,5.674c0,2.593-0.563,5.078-1.674,7.388c-0.859,1.775-1.983,3.354-3.347,4.705
			c-1.785,1.799-3.945,3.163-6.389,4.023C371.441,272.756,369.534,273.08,367.59,273.08z M367.59,248.919
			c-0.812,0-1.603,0.134-2.35,0.396c-1.008,0.355-1.897,0.916-2.642,1.666c-0.586,0.58-1.05,1.235-1.409,1.978
			c-0.449,0.934-0.68,1.961-0.68,3.041c0,0.812,0.134,1.603,0.396,2.352c0.355,1.008,0.916,1.897,1.664,2.639
			c0.583,0.588,1.237,1.052,1.977,1.409c1.64,0.788,3.649,0.897,5.395,0.284c1.007-0.354,1.896-0.915,2.64-1.664
			c0.586-0.582,1.05-1.237,1.409-1.978c0.449-0.935,0.68-1.962,0.68-3.042c0-0.813-0.134-1.604-0.396-2.353
			c-0.354-1.005-0.916-1.896-1.666-2.64c-0.58-0.586-1.234-1.049-1.976-1.407C369.696,249.15,368.669,248.919,367.59,248.919z"></path><path d="M367.59 322.33h-10v-.18c.033-12.018 2.908-18.377 5.445-23.987 2.444-5.405 4.555-10.073 4.555-20.052 0-3.644-.29-6.815-.887-9.697l9.793-2.027c.736 3.558 1.094 7.393 1.094 11.725 0 12.134-2.892 18.529-5.443 24.172-2.431 5.376-4.529 10.019-4.557 19.881V322.33zM358.684 245.612c-.736-3.558-1.094-7.393-1.094-11.723 0-12.135 2.892-18.53 5.443-24.173 2.431-5.376 4.53-10.019 4.557-19.881v-.167h10v.181c-.032 12.018-2.908 18.377-5.445 23.987-2.443 5.405-4.555 10.073-4.555 20.053 0 3.642.29 6.813.887 9.696L358.684 245.612z"></path><path d="M320.737 302.854l-7.191-6.949.159-.16c8.567-8.524 15.098-10.988 20.859-13.161 5.549-2.093 10.342-3.9 17.391-10.949 2.581-2.582 4.622-5.03 6.238-7.484l8.352 5.5c-1.993 3.026-4.452 5.988-7.52 9.055-8.573 8.573-15.139 11.05-20.932 13.235-5.521 2.082-10.288 3.881-17.277 10.835l-3.622-3.449L320.737 302.854zM376.985 247.85l-8.352-5.501c1.995-3.027 4.454-5.989 7.521-9.055 8.574-8.58 15.143-11.057 20.937-13.241 5.52-2.08 10.285-3.877 17.272-10.828l.148-.148 7.037 7.105-.124.123c-8.516 8.472-15.045 10.934-20.806 13.105-5.55 2.092-10.343 3.899-17.393 10.954C380.644 242.946 378.603 245.395 376.985 247.85z"></path><path d="M345.48 266c-12.135 0-18.531-2.892-24.174-5.443-5.376-2.431-10.019-4.53-19.881-4.558h-.166v-10h.18c12.018.033 18.377 2.908 23.987 5.445 5.405 2.444 10.074 4.556 20.054 4.556 3.646 0 6.817-.29 9.694-.887l2.029 9.792C353.652 265.642 349.817 266 345.48 266zM433.92 266h-.18c-12.019-.032-18.378-2.908-23.988-5.445-5.405-2.444-10.073-4.556-20.052-4.556-3.643 0-6.814.29-9.696.887l-2.027-9.793c3.558-.735 7.393-1.094 11.724-1.094 12.134 0 18.529 2.893 24.172 5.444 5.376 2.431 10.019 4.53 19.882 4.557h.166V266z"></path><path d="M353.939 254.954c-3.026-1.993-5.988-4.452-9.055-7.52-8.573-8.573-11.05-15.139-13.235-20.932-2.082-5.52-3.881-10.287-10.835-17.277l3.447-3.625-3.524 3.547 3.482-3.588 3.535-3.536-3.535 3.536 3.566-3.505.16.162c8.423 8.465 10.887 14.995 13.06 20.757 2.093 5.549 3.9 10.341 10.949 17.39 2.583 2.583 5.031 4.624 7.485 6.24L353.939 254.954zM407.391 309.942l-.013-.013c-.015-.015-.087-.087-.102-.102-8.467-8.505-10.93-15.037-13.104-20.801-2.093-5.551-3.9-10.345-10.948-17.393-2.582-2.58-5.03-4.621-7.485-6.239l5.502-8.35c3.026 1.994 5.988 4.453 9.054 7.518 8.573 8.573 11.05 15.141 13.235 20.935 2.082 5.521 3.88 10.29 10.834 17.275l.153.155L407.391 309.942z"></path><polygon fill="#58595B" points="67.515 120.604 67.515 119.979 34.005 119.979 34.005 140.488 47.005 140.488 47.005 392.021 67.515 392.021 67.515 120.604"></polygon><path d="M67.515,397.021h-20.51c-2.761,0-5-2.238-5-5V145.488h-8c-2.761,0-5-2.238-5-5v-20.51c0-2.761,2.239-5,5-5h33.51
			c2.761,0,5,2.239,5,5v272.043C72.515,394.783,70.276,397.021,67.515,397.021z M52.005,387.021h10.51V124.979h-23.51v10.51h8
			c2.761,0,5,2.239,5,5V387.021z"></path><rect width="13" height="19.067" x="34.005" y="179.312" fill="#F7941E"></rect><path d="M47.005,203.379h-13c-2.761,0-5-2.238-5-5v-19.067c0-2.761,2.239-5,5-5h13c2.761,0,5,2.239,5,5v19.067
			C52.005,201.141,49.766,203.379,47.005,203.379z M39.005,193.379h3v-9.067h-3V193.379z"></path><g><rect width="13" height="19.067" x="34.005" y="212.942" fill="#F7941E"></rect><path d="M47.005,237.01h-13c-2.761,0-5-2.239-5-5v-19.067c0-2.762,2.239-5,5-5h13c2.761,0,5,2.238,5,5v19.067
			C52.005,234.771,49.766,237.01,47.005,237.01z M39.005,227.01h3v-9.067h-3V227.01z"></path></g><g><rect width="13" height="72.766" x="34.005" y="267.213" fill="#F7941E"></rect><path d="M47.005,344.979h-13c-2.761,0-5-2.238-5-5v-72.766c0-2.762,2.239-5,5-5h13c2.761,0,5,2.238,5,5v72.766
			C52.005,342.74,49.766,344.979,47.005,344.979z M39.005,334.979h3v-62.766h-3V334.979z"></path></g></svg>