<svg xmlns="http://www.w3.org/2000/svg" width="32" height="32" fill-rule="evenodd" stroke-linejoin="round" stroke-miterlimit="2" clip-rule="evenodd" id="hardisk"><path d="M27 4a2 2 0 0 0-2-2H7a2 2 0 0 0-2 2v24a2 2 0 0 0 2 2h18a2 2 0 0 0 2-2V4ZM7 4h18v24H7V4Z"></path><path d="M16 7c-3.863 0-7 3.137-7 7s3.137 7 7 7 7-3.137 7-7-3.137-7-7-7Zm0 2c2.76 0 5 2.24 5 5s-2.24 5-5 5-5-2.24-5-5 2.24-5 5-5Z"></path><path d="M15.908 16.42a1 1 0 0 0-1.611-1.131l-5 4.945a1 1 0 0 0 .093 1.503l2 1.539c.241.185.553.251.849.179.295-.073.541-.276.669-.552l3-6.483zM9.5 5a1.5 1.5 0 1 0 .001 3.001A1.5 1.5 0 0 0 9.5 5zm0 2a.5.5 0 1 1 0-1 .5.5 0 0 1 0 1zm13-2a1.5 1.5 0 1 0 .001 3.001A1.5 1.5 0 0 0 22.5 5zm0 2a.5.5 0 1 1 0-1 .5.5 0 0 1 0 1zm0 17a1.5 1.5 0 1 0 .001 3.001A1.5 1.5 0 0 0 22.5 24zm0 2a.5.5 0 1 1 0-1 .5.5 0 0 1 0 1zm-13-2a1.5 1.5 0 1 0 .001 3.001A1.5 1.5 0 0 0 9.5 24zm0 2a.5.5 0 1 1 0-1 .5.5 0 0 1 0 1z"></path></svg>