<svg xmlns="http://www.w3.org/2000/svg" data-name="1-motherboard" viewBox="0 0 32 32" id="motherboard"><path d="M6.75 12.75h-5.5v-7.5h5.5zm-4-1.5h2.5v-4.5h-2.5zm4 7.5h-5.5v-4.5h5.5zm-4-1.5h2.5v-1.5h-2.5z"></path><path d="M30.75 30.75H3.25v-13.5h2v-1.5h-2v-4.5h2v-4.5h-2v-5.5h27.5Zm-26-1.5h24.5V2.75H4.75v2.5h2v7.5h-2v1.5h2v4.5h-2Z"></path><path d="M19.75 16.75H8.25V5.25h11.5Zm-10-1.5h8.5v-8.5h-8.5Z"></path><path d="M16.75 13.75h-5.5v-5.5h5.5Zm-4-1.5h2.5v-2.5h-2.5ZM25.25 6h1.5v14h-1.5zM22.25 6h1.5v14h-1.5zM19.75 21.75H8.25v-3.5h11.5zm-10-1.5h8.5v-.5h-8.5zm10 6.5H8.25v-3.5h11.5zm-10-1.5h8.5v-.5h-8.5zm14.75 1.5a2.25 2.25 0 1 1 2.25-2.25 2.25 2.25 0 0 1-2.25 2.25zm0-3a.75.75 0 1 0 .75.75.75.75 0 0 0-.75-.75z"></path></svg>