<?xml version="1.0" standalone="no"?>
<!DOCTYPE svg PUBLIC "-//W3C//DTD SVG 20010904//EN"
 "http://www.w3.org/TR/2001/REC-SVG-20010904/DTD/svg10.dtd">
<svg version="1.0" xmlns="http://www.w3.org/2000/svg"
 width="792.000000pt" height="792.000000pt" viewBox="0 0 792.000000 792.000000"
 preserveAspectRatio="xMidYMid meet">

<g transform="translate(0.000000,792.000000) scale(0.100000,-0.100000)"
fill="#000000" stroke="none">
<path d="M0 5840 l0 -2080 80 0 80 0 0 80 0 80 80 0 80 0 0 80 0 80 80 0 80 0
0 80 0 80 80 0 80 0 0 80 0 80 116 0 c118 0 145 -8 136 -40 -2 -8 8 -1 22 15
14 17 25 36 26 43 0 6 4 12 9 12 16 0 23 38 11 59 -8 16 -8 19 3 15 9 -3 17 3
20 15 3 12 12 21 21 21 19 0 21 11 5 27 -8 8 2 8 32 -1 41 -12 46 -12 74 9 16
13 55 35 85 51 68 34 63 30 55 44 -4 7 -16 2 -33 -15 -15 -15 -28 -22 -30 -16
-2 7 -12 5 -26 -4 -12 -8 -25 -12 -28 -9 -4 3 -12 -5 -19 -17 -7 -13 -18 -30
-26 -38 -12 -11 -13 -9 -8 15 11 49 14 56 25 49 6 -4 10 38 10 119 0 119 1
126 20 126 15 0 20 7 20 25 0 15 7 28 17 32 23 9 37 23 46 46 4 10 17 17 32
17 18 0 25 5 25 20 0 13 7 20 20 20 15 0 20 7 20 25 0 15 7 28 18 32 22 9 36
23 45 46 4 10 17 17 32 17 18 0 25 5 25 20 0 13 7 20 20 20 15 0 20 7 20 26 0
17 6 28 20 31 11 3 20 9 20 14 0 5 14 9 30 9 23 0 30 4 30 20 0 11 5 20 10 20
6 0 10 9 10 20 0 13 7 20 19 20 14 0 21 8 23 28 3 23 8 27 41 30 35 3 37 2 37
-27 0 -24 4 -31 20 -31 17 0 20 7 20 40 0 22 5 40 10 40 6 0 10 18 10 40 0 38
2 40 30 40 26 0 30 4 30 26 0 33 21 54 54 54 24 0 26 4 26 40 l0 40 80 0 80 0
0 40 c0 22 5 40 10 40 6 0 10 18 10 40 l0 40 70 0 70 0 0 40 c0 22 5 40 10 40
6 0 10 14 10 30 0 27 3 30 30 30 17 0 30 5 30 10 0 6 18 10 40 10 l40 0 0 69
c0 60 -3 72 -22 85 -18 13 -22 27 -26 99 -3 50 0 87 6 90 11 7 52 -25 52 -40
0 -6 7 -16 15 -23 9 -7 14 -19 11 -26 -4 -10 1 -12 17 -10 12 3 24 5 27 5 2 1
-22 28 -55 61 -33 33 -56 60 -53 60 4 0 -2 25 -13 56 -16 45 -20 78 -17 155 1
53 6 96 9 93 7 -4 19 21 19 39 0 4 9 17 20 29 11 12 20 26 20 31 0 5 11 18 25
29 14 11 23 24 19 29 -3 5 -2 9 3 8 22 -4 34 2 27 14 -4 6 -4 9 1 5 8 -8 64
19 77 37 4 6 8 7 8 2 0 -4 16 -1 35 7 73 31 244 5 320 -48 16 -11 37 -20 45
-18 11 2 12 1 2 -6 -9 -6 -7 -13 8 -30 23 -25 39 -30 20 -7 -11 13 -11 18 0
28 10 9 11 9 6 -1 -4 -7 -2 -19 4 -27 6 -8 9 -19 5 -25 -3 -5 -2 -10 4 -10 5
0 12 8 14 18 3 9 3 0 2 -20 -2 -21 0 -40 5 -43 4 -2 10 -18 13 -35 4 -16 10
-30 15 -30 5 0 7 11 4 25 -2 14 0 25 4 25 5 0 10 -10 11 -22 12 -179 24 -238
49 -238 7 0 15 -10 17 -22 2 -13 5 165 6 395 0 229 4 417 9 417 4 1 48 2 97 3
l90 2 -1 -300 c-1 -277 0 -286 6 -115 4 102 8 206 9 233 l1 47 65 0 c37 0 65
4 65 10 0 6 9 10 20 10 11 0 20 5 20 10 0 6 27 10 60 10 l60 0 0 70 c0 63 2
70 20 70 11 0 20 5 20 10 0 6 27 10 60 10 l60 0 0 70 c0 63 2 70 20 70 11 0
20 5 20 10 0 6 27 10 60 10 l60 0 0 70 c0 63 2 70 20 70 11 0 20 5 20 10 0 6
27 10 60 10 l60 0 0 30 c0 17 5 30 10 30 6 0 10 18 10 40 l0 40 40 0 c22 0 40
5 40 10 0 6 18 10 40 10 l40 0 0 70 0 70 -2160 0 -2160 0 0 -2080z m4120 1970
c0 -5 -5 -10 -11 -10 -5 0 -7 5 -4 10 3 6 8 10 11 10 2 0 4 -4 4 -10z m-890
-540 c0 -5 -14 -10 -31 -10 -17 0 -28 4 -24 10 3 6 17 10 31 10 13 0 24 -4 24
-10z m-2152 -157 l3 -103 -101 0 -100 0 0 105 0 106 98 -3 97 -3 3 -102z
m1082 -68 l0 -134 68 -3 67 -3 3 -82 3 -83 -71 0 -70 0 0 -147 c1 -104 5 -157
15 -178 12 -26 13 -27 14 -8 1 24 23 43 29 25 2 -6 3 -14 2 -18 -1 -4 4 -11
12 -15 9 -6 6 -9 -12 -9 -20 0 -22 -2 -10 -10 8 -5 32 -10 53 -10 l37 0 0 -91
c0 -66 3 -88 12 -83 7 5 8 3 3 -6 -4 -7 -2 -16 6 -22 11 -7 9 -8 -6 -5 -11 2
-19 9 -18 15 2 8 -15 12 -55 12 -31 1 -77 5 -102 11 -25 6 -53 10 -62 10 -10
0 -18 4 -18 9 0 5 -12 22 -27 37 -14 15 -23 23 -19 16 3 -6 2 -14 -3 -18 -6
-3 -8 4 -6 16 2 12 -3 35 -13 53 -15 28 -17 76 -20 444 l-3 412 95 0 96 0 0
-135z m660 -100 c0 -8 -9 -15 -19 -15 -24 0 -36 16 -19 23 24 10 38 7 38 -8z
m-1099 -57 c30 -13 60 -23 67 -22 7 1 8 0 2 -3 -8 -3 -7 -9 1 -19 6 -8 15 -11
20 -8 5 3 8 2 7 -3 -4 -12 35 -93 42 -88 10 6 11 -2 17 -279 4 -211 3 -260 -8
-268 -10 -7 -8 -8 7 -3 14 4 24 0 27 -9 8 -19 -13 -33 -23 -16 -4 7 -15 10
-25 7 -9 -4 -14 -3 -10 3 4 6 -10 10 -33 10 -22 0 -60 3 -86 6 l-46 7 0 213
c0 196 -2 218 -21 259 -17 35 -29 47 -64 61 -49 18 -141 12 -129 -8 5 -7 2 -8
-5 -4 -15 10 -53 -23 -44 -37 3 -6 1 -7 -6 -3 -7 5 -17 -5 -26 -28 -12 -27
-15 -83 -15 -246 l0 -210 -100 0 -100 0 2 353 3 352 50 3 c28 2 69 1 92 -3 40
-6 42 -8 45 -45 l3 -40 50 40 c27 21 65 44 85 49 58 17 160 7 221 -21z m1149
22 c0 -5 -6 -10 -14 -10 -8 0 -18 5 -21 10 -3 6 3 10 14 10 12 0 21 -4 21 -10z
m-1800 -357 l0 -353 -95 0 -95 0 0 348 c0 192 2 351 4 353 3 2 45 4 95 4 l91
0 0 -352z m1240 167 c0 -5 -2 -10 -4 -10 -3 0 -8 5 -11 10 -3 6 -1 10 4 10 6
0 11 -4 11 -10z m22 -92 c-9 -9 -12 -7 -12 12 0 19 3 21 12 12 9 -9 9 -15 0
-24z m-5 -100 c-2 -13 -4 -5 -4 17 -1 22 1 32 4 23 2 -10 2 -28 0 -40z m13
-232 c0 -89 -2 -98 -14 -80 -8 11 -10 21 -5 25 16 10 -2 120 -22 138 -18 15
-18 16 3 27 33 18 38 4 38 -110z m-522 -123 c-10 -2 -28 -2 -40 0 -13 2 -5 4
17 4 22 1 32 -1 23 -4z m431 3 c-12 -10 -60 -16 -54 -6 3 5 18 10 32 10 15 0
24 -2 22 -4z m-209 -446 c0 -5 -5 -10 -11 -10 -5 0 -7 5 -4 10 3 6 8 10 11 10
2 0 4 -4 4 -10z m-980 -1100 c0 -5 -4 -10 -10 -10 -5 0 -10 5 -10 10 0 6 5 10
10 10 6 0 10 -4 10 -10z m-300 -20 c0 -5 -5 -10 -11 -10 -5 0 -7 5 -4 10 3 6
8 10 11 10 2 0 4 -4 4 -10z m170 -169 c0 -16 -7 -34 -15 -41 -18 -15 -20 1 -3
18 9 9 8 12 -5 12 -20 0 -21 6 -4 25 19 22 27 18 27 -14z m-330 9 c0 -5 -5
-10 -11 -10 -5 0 -7 5 -4 10 3 6 8 10 11 10 2 0 4 -4 4 -10z m-160 -160 c0 -5
-5 -10 -11 -10 -5 0 -7 5 -4 10 3 6 8 10 11 10 2 0 4 -4 4 -10z m-160 -160 c0
-5 -5 -10 -11 -10 -5 0 -7 5 -4 10 3 6 8 10 11 10 2 0 4 -4 4 -10z m-160 -160
c0 -5 -5 -10 -11 -10 -5 0 -7 5 -4 10 3 6 8 10 11 10 2 0 4 -4 4 -10z"/>
<path d="M2645 6740 c-3 -5 -1 -10 5 -10 8 0 8 -6 0 -20 -13 -24 -34 -16 -27
11 4 16 2 17 -14 8 -11 -5 -17 -14 -14 -18 2 -5 -3 -8 -13 -7 -9 0 -16 -5 -14
-12 1 -8 -2 -11 -7 -7 -12 7 -34 -31 -26 -44 3 -5 -1 -12 -7 -14 -7 -3 71 -6
174 -6 184 -1 186 -1 181 20 -4 14 -8 17 -13 9 -5 -9 -9 -9 -14 -1 -4 6 -5 15
-2 19 11 19 -27 52 -76 67 -59 17 -124 20 -133 5z m68 -7 c-7 -2 -19 -2 -25 0
-7 3 -2 5 12 5 14 0 19 -2 13 -5z m123 -67 c5 -20 2 -26 -10 -26 -9 0 -16 3
-17 8 0 4 -2 21 -3 39 -3 27 -1 30 10 19 7 -8 16 -25 20 -40z m-279 -18 c-3
-8 -6 -5 -6 6 -1 11 2 17 5 13 3 -3 4 -12 1 -19z m103 1 c0 -12 -57 -12 -65 0
-3 5 7 11 22 13 32 4 43 1 43 -13z"/>
<path d="M3072 6563 c1 -46 5 -83 9 -83 11 0 10 47 -1 115 -7 46 -8 43 -8 -32z"/>
<path d="M3351 6523 c-1 -28 3 -54 8 -57 5 -3 6 16 4 42 -7 69 -11 74 -12 15z"/>
<path d="M2535 6458 c4 -13 19 -35 32 -50 22 -22 29 -25 51 -17 18 7 27 6 33
-3 6 -10 15 -10 37 -2 23 9 33 8 48 -4 17 -13 11 -14 -56 -9 -59 5 -71 3 -55
-5 32 -19 145 -15 188 5 20 10 37 24 37 32 0 7 2 19 3 27 2 7 2 10 0 6 -2 -4
-10 -5 -17 -2 -8 3 -16 -4 -19 -15 -3 -13 1 -21 12 -24 13 -4 13 -5 -2 -6 -11
-1 -21 7 -24 19 -5 18 -14 20 -74 20 -39 0 -69 4 -69 10 0 6 -16 10 -35 10
-31 0 -35 -3 -35 -26 0 -22 -2 -25 -15 -14 -20 17 -19 36 3 45 9 4 120 10 247
12 126 3 232 6 234 9 2 2 -116 4 -263 4 l-267 0 6 -22z"/>
<path d="M2866 6425 c-3 -8 -1 -15 4 -15 6 0 10 7 10 15 0 8 -2 15 -4 15 -2 0
-6 -7 -10 -15z"/>
<path d="M2896 6428 c3 -5 10 -6 15 -3 13 9 11 12 -6 12 -8 0 -12 -4 -9 -9z"/>
<path d="M2920 6411 c0 -5 7 -12 16 -15 14 -5 15 -4 4 9 -14 17 -20 19 -20 6z"/>
<path d="M2965 6399 c-4 -6 -5 -12 -2 -15 2 -3 7 2 10 11 7 17 1 20 -8 4z"/>
<path d="M3489 6395 c-1 -3 -2 -8 -3 -12 -1 -5 -5 -15 -10 -23 -5 -8 3 -4 17
9 15 14 27 26 27 28 0 5 -30 3 -31 -2z"/>
<path d="M3588 6393 c7 -3 16 -2 19 1 4 3 -2 6 -13 5 -11 0 -14 -3 -6 -6z"/>
<path d="M2985 6360 c3 -5 8 -10 11 -10 2 0 4 5 4 10 0 6 -5 10 -11 10 -5 0
-7 -4 -4 -10z"/>
<path d="M3545 6360 c-17 -7 -14 -9 12 -9 19 -1 36 -8 42 -18 6 -11 11 -13 11
-5 0 8 5 10 13 6 6 -4 4 1 -5 12 -19 22 -42 26 -73 14z"/>
<path d="M3505 6349 c-4 -6 -5 -12 -2 -15 2 -3 7 2 10 11 7 17 1 20 -8 4z"/>
<path d="M3441 6329 c0 -8 4 -23 9 -34 8 -17 9 -16 7 7 -3 28 -18 53 -16 27z"/>
<path d="M3015 6310 c-5 -9 -4 -11 3 -6 7 4 12 1 12 -8 0 -8 5 -18 10 -21 14
-9 12 8 -3 30 -11 14 -16 15 -22 5z"/>
<path d="M3550 6308 c0 -4 7 -8 15 -8 8 0 15 4 15 8 0 5 -7 9 -15 9 -8 0 -15
-4 -15 -9z"/>
<path d="M3620 6313 c0 -5 5 -15 10 -23 8 -12 10 -11 10 8 0 12 -4 22 -10 22
-5 0 -10 -3 -10 -7z"/>
<path d="M2977 6272 c-15 -17 -15 -18 6 -19 12 0 16 1 9 4 -10 4 -10 8 -1 19
17 20 5 17 -14 -4z"/>
<path d="M3501 6276 c-10 -12 -8 -19 8 -35 21 -21 47 -29 36 -11 -3 6 -13 10
-22 10 -11 0 -14 7 -11 25 6 29 5 30 -11 11z"/>
<path d="M3613 6254 c-3 -9 -13 -14 -24 -11 -12 3 -16 0 -12 -9 7 -20 16 -17
41 11 12 14 17 25 12 25 -6 0 -13 -7 -17 -16z"/>
<path d="M3455 6250 c-3 -5 -1 -10 4 -10 6 0 11 5 11 10 0 6 -2 10 -4 10 -3 0
-8 -4 -11 -10z"/>
<path d="M2907 6226 c-14 -11 -15 -15 -4 -19 7 -3 19 4 25 14 14 22 5 24 -21
5z"/>
<path d="M3480 6221 c0 -5 7 -12 16 -15 14 -5 15 -4 4 9 -14 17 -20 19 -20 6z"/>
<path d="M2530 6210 c-8 -5 -25 -10 -37 -10 -13 0 -23 -4 -23 -10 0 -17 40
-11 62 10 23 21 22 26 -2 10z"/>
<path d="M2860 6200 c0 -5 5 -10 10 -10 6 0 10 5 10 10 0 6 -4 10 -10 10 -5 0
-10 -4 -10 -10z"/>
<path d="M2590 6184 c0 -16 0 -16 115 -16 132 0 142 1 126 11 -8 5 -46 7 -85
4 -39 -3 -90 0 -113 5 -35 8 -43 7 -43 -4z"/>
<path d="M3218 6193 c17 -2 47 -2 65 0 17 2 3 4 -33 4 -36 0 -50 -2 -32 -4z"/>
<path d="M3578 6173 c7 -3 16 -2 19 1 4 3 -2 6 -13 5 -11 0 -14 -3 -6 -6z"/>
<path d="M1240 4716 c0 -9 30 -14 35 -6 4 6 -3 10 -14 10 -12 0 -21 -2 -21 -4z"/>
<path d="M1373 4706 c-13 -6 -23 -14 -23 -17 0 -10 39 1 46 13 9 14 2 15 -23
4z"/>
<path d="M1426 4711 c-5 -8 84 -3 93 5 2 2 -16 4 -42 4 -25 0 -48 -4 -51 -9z"/>
<path d="M1578 4713 c18 -2 45 -2 60 0 15 2 0 4 -33 4 -33 0 -45 -2 -27 -4z"/>
<path d="M1759 4695 c42 -19 50 -19 25 0 -10 8 -28 14 -39 14 -14 0 -10 -4 14
-14z"/>
<path d="M2898 4693 c7 -3 16 -2 19 1 4 3 -2 6 -13 5 -11 0 -14 -3 -6 -6z"/>
<path d="M1270 4670 c0 -5 5 -10 11 -10 5 0 7 5 4 10 -3 6 -8 10 -11 10 -2 0
-4 -4 -4 -10z"/>
<path d="M2025 4570 c10 -11 20 -20 23 -20 3 0 -3 9 -13 20 -10 11 -20 20 -23
20 -3 0 3 -9 13 -20z"/>
<path d="M1017 4509 c-53 -56 -41 -59 13 -4 24 25 40 45 35 45 -6 0 -27 -18
-48 -41z"/>
<path d="M2070 4541 c0 -6 4 -13 10 -16 6 -3 7 1 4 9 -7 18 -14 21 -14 7z"/>
<path d="M1503 4483 c15 -2 39 -2 55 0 15 2 2 4 -28 4 -30 0 -43 -2 -27 -4z"/>
<path d="M1628 4483 c6 -2 18 -2 25 0 6 3 1 5 -13 5 -14 0 -19 -2 -12 -5z"/>
<path d="M1770 4450 c8 -5 20 -10 25 -10 6 0 3 5 -5 10 -8 5 -19 10 -25 10 -5
0 -3 -5 5 -10z"/>
<path d="M3700 4446 c0 -2 8 -10 18 -17 15 -13 16 -12 3 4 -13 16 -21 21 -21
13z"/>
<path d="M1840 4416 c0 -2 7 -7 16 -10 8 -3 12 -2 9 4 -6 10 -25 14 -25 6z"/>
<path d="M1265 4400 c-3 -6 1 -7 9 -4 18 7 21 14 7 14 -6 0 -13 -4 -16 -10z"/>
<path d="M1229 4378 c-8 -29 -6 -45 6 -45 17 0 20 13 5 22 -6 4 -8 11 -5 16 4
5 4 9 1 9 -3 0 -6 -1 -7 -2z"/>
<path d="M1258 4373 c7 -3 16 -2 19 1 4 3 -2 6 -13 5 -11 0 -14 -3 -6 -6z"/>
<path d="M2749 4363 c-13 -16 -12 -17 4 -4 16 13 21 21 13 21 -2 0 -10 -8 -17
-17z"/>
<path d="M1910 4366 c0 -2 7 -7 16 -10 8 -3 12 -2 9 4 -6 10 -25 14 -25 6z"/>
<path d="M1169 4313 c-22 -24 -22 -26 -4 -20 20 7 20 7 1 -8 -19 -15 -19 -15
1 -15 23 0 39 26 20 33 -9 3 -8 8 2 20 22 27 7 19 -20 -10z"/>
<path d="M860 4311 c-6 -12 -7 -21 -1 -21 10 0 24 30 17 37 -2 3 -9 -5 -16
-16z"/>
<path d="M1120 4255 c-7 -9 -10 -18 -7 -21 3 -3 10 4 17 15 13 25 8 27 -10 6z"/>
<path d="M831 4246 c-7 -8 -8 -17 -3 -20 6 -3 12 3 15 14 6 24 4 25 -12 6z"/>
<path d="M809 4203 c0 -5 -3 -26 -5 -48 -3 -21 -2 -36 1 -33 8 8 17 88 10 88
-3 0 -5 -3 -6 -7z"/>
<path d="M1067 4150 c-3 -11 -3 -20 -1 -20 2 0 8 9 14 20 6 11 7 20 2 20 -6 0
-12 -9 -15 -20z"/>
<path d="M1050 4104 c0 -8 5 -12 10 -9 6 3 10 10 10 16 0 5 -4 9 -10 9 -5 0
-10 -7 -10 -16z"/>
<path d="M790 4082 c0 -12 -4 -22 -10 -22 -5 0 -10 -4 -10 -10 0 -5 4 -10 10
-10 11 0 25 48 16 57 -3 4 -6 -3 -6 -15z"/>
<path d="M775 3988 c8 -46 15 -48 15 -5 0 21 -5 37 -10 37 -6 0 -8 -13 -5 -32z"/>
<path d="M1034 4006 c-3 -7 -4 -40 -2 -72 l3 -59 5 73 c5 72 4 84 -6 58z"/>
<path d="M780 3851 c0 -5 5 -13 10 -16 6 -3 10 -2 10 4 0 5 -4 13 -10 16 -5 3
-10 2 -10 -4z"/>
<path d="M1100 3686 c0 -23 16 -27 17 -5 1 10 -2 19 -8 19 -5 0 -9 -6 -9 -14z"/>
<path d="M846 3631 c-3 -5 1 -11 9 -14 9 -4 12 -1 8 9 -6 16 -10 17 -17 5z"/>
<path d="M960 3453 c0 -5 12 -20 28 -34 l27 -24 -25 30 c-14 17 -26 32 -27 34
-2 2 -3 0 -3 -6z"/>
<path d="M1040 3370 c0 -5 5 -10 11 -10 5 0 7 5 4 10 -3 6 -8 10 -11 10 -2 0
-4 -4 -4 -10z"/>
<path d="M7213 1803 c9 -2 25 -2 35 0 9 3 1 5 -18 5 -19 0 -27 -2 -17 -5z"/>
<path d="M6550 1390 c0 -5 5 -10 11 -10 5 0 7 5 4 10 -3 6 -8 10 -11 10 -2 0
-4 -4 -4 -10z"/>
<path d="M7208 1393 c6 -2 18 -2 25 0 6 3 1 5 -13 5 -14 0 -19 -2 -12 -5z"/>
<path d="M7270 1387 c0 -6 3 -7 7 -4 3 4 12 2 18 -3 9 -7 14 -7 18 2 3 8 -5
14 -19 14 -13 1 -24 -3 -24 -9z"/>
<path d="M7038 1383 c7 -3 16 -2 19 1 4 3 -2 6 -13 5 -11 0 -14 -3 -6 -6z"/>
<path d="M6754 1270 c0 -58 1 -81 3 -52 2 28 2 76 0 105 -2 28 -3 5 -3 -53z"/>
<path d="M6534 1275 c0 -49 1 -71 3 -48 2 23 2 64 0 90 -2 26 -3 8 -3 -42z"/>
<path d="M6930 1340 c0 -5 5 -10 10 -10 6 0 10 5 10 10 0 6 -4 10 -10 10 -5 0
-10 -4 -10 -10z"/>
<path d="M7410 1305 c24 -24 48 -41 53 -38 6 3 2 10 -9 14 -11 4 -31 21 -45
38 -13 17 -28 31 -34 31 -5 0 11 -20 35 -45z"/>
<path d="M6880 1285 c-7 -8 -19 -15 -26 -15 -8 0 -14 -5 -14 -10 0 -7 6 -7 18
-1 19 10 49 41 39 41 -2 0 -10 -7 -17 -15z"/>
<path d="M7125 1199 c4 -5 31 -9 62 -9 31 0 54 2 51 5 -10 10 -119 14 -113 4z"/>
<path d="M7240 1170 c0 -5 7 -13 16 -18 9 -5 19 -24 24 -43 6 -25 8 -28 9 -11
1 27 -25 82 -39 82 -6 0 -10 -4 -10 -10z"/>
<path d="M6920 1146 c0 -2 8 -10 18 -17 15 -13 16 -12 3 4 -13 16 -21 21 -21
13z"/>
<path d="M6534 1047 c-3 -8 -3 -45 -1 -83 l3 -69 2 77 2 77 103 4 102 3 -103
2 c-78 2 -104 -1 -108 -11z"/>
<path d="M7245 1030 c-4 -6 -16 -8 -28 -5 -17 5 -19 4 -7 -4 12 -9 13 -11 1
-11 -8 0 -12 -2 -9 -5 7 -8 58 16 58 27 0 11 -7 10 -15 -2z"/>
<path d="M7046 983 c-6 -14 -5 -15 5 -6 7 7 10 15 7 18 -3 3 -9 -2 -12 -12z"/>
<path d="M7429 973 c-13 -16 -12 -17 4 -4 16 13 21 21 13 21 -2 0 -10 -8 -17
-17z"/>
<path d="M7063 900 c0 -41 2 -58 4 -37 2 20 2 54 0 75 -2 20 -4 3 -4 -38z"/>
<path d="M7380 930 c-9 -6 -10 -10 -3 -10 6 0 15 5 18 10 8 12 4 12 -15 0z"/>
<path d="M7415 880 c3 -5 8 -10 11 -10 2 0 4 5 4 10 0 6 -5 10 -11 10 -5 0 -7
-4 -4 -10z"/>
<path d="M7466 867 c3 -10 9 -15 12 -12 3 3 0 11 -7 18 -10 9 -11 8 -5 -6z"/>
<path d="M7128 823 c18 -2 45 -2 60 0 15 2 0 4 -33 4 -33 0 -45 -2 -27 -4z"/>
<path d="M7220 811 c0 -10 25 -21 48 -21 15 1 14 3 -2 15 -22 17 -46 20 -46 6z"/>
<path d="M7490 790 c0 -6 4 -9 9 -6 5 4 12 1 14 -4 3 -6 4 -5 3 2 -3 15 -26
23 -26 8z"/>
<path d="M7509 709 c1 -28 5 -49 7 -47 8 9 7 79 -1 87 -7 7 -9 -8 -6 -40z"/>
<path d="M7290 718 c0 -27 -33 -81 -43 -71 -4 3 -7 -2 -7 -13 1 -32 60 45 60
78 0 15 -2 28 -5 28 -3 0 -5 -10 -5 -22z"/>
<path d="M7030 671 c0 -8 -7 -11 -15 -7 -8 3 -15 1 -15 -3 0 -17 28 -20 34 -4
4 9 4 18 1 21 -3 3 -5 0 -5 -7z"/>
<path d="M7040 640 c0 -5 5 -10 11 -10 5 0 7 5 4 10 -3 6 -8 10 -11 10 -2 0
-4 -4 -4 -10z"/>
<path d="M6845 630 c-3 -5 -1 -10 4 -10 6 0 11 5 11 10 0 6 -2 10 -4 10 -3 0
-8 -4 -11 -10z"/>
<path d="M7497 619 c-4 -16 -3 -18 9 -8 7 6 11 15 8 20 -8 13 -11 11 -17 -12z"/>
<path d="M7087 619 c21 -9 139 -12 131 -3 -3 3 -38 6 -78 7 -39 2 -63 0 -53
-4z"/>
<path d="M6825 600 c-4 -6 -11 -7 -17 -4 -7 4 -8 2 -4 -5 6 -9 11 -9 22 0 14
11 18 19 10 19 -3 0 -8 -5 -11 -10z"/>
<path d="M7456 545 c-10 -15 -13 -25 -8 -21 6 3 12 3 15 -1 2 -5 2 -3 1 4 -2
6 2 13 8 15 6 2 9 10 7 17 -3 9 -11 4 -23 -14z"/>
<path d="M6810 556 c0 -2 7 -6 15 -10 8 -3 15 -1 15 4 0 6 -7 10 -15 10 -8 0
-15 -2 -15 -4z"/>
<path d="M7500 535 c0 -8 5 -15 10 -15 6 0 10 7 10 15 0 8 -4 15 -10 15 -5 0
-10 -7 -10 -15z"/>
<path d="M6875 500 c-3 -5 2 -13 12 -16 10 -3 27 -10 38 -17 11 -6 31 -16 45
-24 14 -7 25 -18 25 -25 0 -7 9 -14 20 -16 11 -2 17 -1 13 3 -4 5 -3 14 3 22
9 10 7 13 -9 13 -20 0 -63 21 -117 56 -15 10 -25 12 -30 4z"/>
<path d="M7420 500 c0 -5 5 -10 11 -10 5 0 7 5 4 10 -3 6 -8 10 -11 10 -2 0
-4 -4 -4 -10z"/>
<path d="M7385 476 c-11 -12 -27 -23 -35 -24 -8 0 -35 -7 -60 -16 l-45 -15 60
1 c33 1 54 3 48 5 -23 8 -14 19 15 18 20 0 28 -6 30 -22 4 -30 42 -32 42 -3 0
11 5 20 10 20 6 0 10 7 10 15 0 8 -5 15 -12 15 -6 0 -19 6 -27 14 -14 13 -19
12 -36 -8z"/>
<path d="M6525 470 c-3 -5 -1 -10 4 -10 6 0 11 5 11 10 0 6 -2 10 -4 10 -3 0
-8 -4 -11 -10z"/>
<path d="M6648 443 c18 -2 45 -2 60 0 15 2 0 4 -33 4 -33 0 -45 -2 -27 -4z"/>
<path d="M7070 410 c-18 -12 -2 -12 25 0 13 6 15 9 5 9 -8 0 -22 -4 -30 -9z"/>
<path d="M7120 410 c0 -13 90 -13 110 0 11 7 -3 10 -47 10 -36 0 -63 -4 -63
-10z"/>
<path d="M7520 240 l0 -160 160 0 160 0 0 160 0 160 -160 0 -160 0 0 -160z"/>
</g>
</svg>
