<svg xmlns="http://www.w3.org/2000/svg" width="2666.563" height="2666.563" fill-rule="evenodd" clip-rule="evenodd" image-rendering="optimizeQuality" shape-rendering="geometricPrecision" text-rendering="geometricPrecision" viewBox="0 0 27777 27777" id="ram"><path d="M2168 8116l23441 0c192,0 347,155 347,347l0 1918c0,192 -155,347 -347,347l-1079 0c-518,0 -942,425 -942,942 0,518 424,942 942,942l1079 0c192,0 347,155 347,347l0 4796c0,192 -155,347 -347,347l-282 0 0 1212c0,192 -156,347 -348,347l-10311 0c-192,0 -348,-155 -348,-347l0 -60c0,-237 -195,-432 -432,-432 -237,0 -432,195 -432,432l0 60c0,192 -155,347 -347,347l-10312 0c-191,0 -347,-155 -347,-347l0 -1212 -282 0c-192,0 -347,-155 -347,-347l0 -4796c0,-192 155,-347 347,-347l1079 0c517,0 942,-425 942,-942 0,-517 -425,-942 -942,-942l-1079 0c-192,0 -347,-155 -347,-347l0 -1918c0,-192 155,-347 347,-347zm4556 2458c-192,0 -347,155 -347,347l0 4736c0,192 155,347 347,347l2278 0c192,0 348,-155 348,-347l0 -4736c0,-192 -156,-347 -348,-347l-2278 0zm1931 694l-1584 0 0 4042 1584 0 0 -4042zm10119 -694c-191,0 -347,155 -347,347l0 4736c0,192 156,347 347,347l2279 0c191,0 347,-155 347,-347l0 -4736c0,-192 -156,-347 -347,-347l-2279 0zm1931 694l-1583 0 0 4042 1583 0 0 -4042zm-5947 -694c-192,0 -348,155 -348,347l0 4736c0,192 156,347 348,347l2278 0c192,0 347,-155 347,-347l0 -4736c0,-192 -155,-347 -347,-347l-2278 0zm1931 694l-1584 0 0 4042 1584 0 0 -4042zm-5948 -694c-192,0 -347,155 -347,347l0 4736c0,192 155,347 347,347l2278 0c192,0 347,-155 347,-347l0 -4736c0,-192 -155,-347 -347,-347l-2278 0zm1931 694l-1584 0 0 4042 1584 0 0 -4042zm11960 6834l-21487 0 0 865 9654 0c129,-487 573,-840 1089,-840 516,0 961,353 1090,840l9654 0 0 -865zm630 -9292l-22747 0 0 1224 732 0c901,0 1636,736 1636,1636 0,901 -735,1636 -1636,1636l-732 0 0 4102 22747 0 0 -4102 -732 0c-900,0 -1637,-736 -1637,-1636 0,-900 736,-1636 1637,-1636l732 0 0 -1224z"></path></svg>